<?xml version="1.0" encoding="utf-8" standalone="no"?>
<!DOCTYPE svg PUBLIC "-//W3C//DTD SVG 1.1//EN"
  "http://www.w3.org/Graphics/SVG/1.1/DTD/svg11.dtd">
<svg xmlns:xlink="http://www.w3.org/1999/xlink" width="1166.4pt" height="455.04pt" viewBox="0 0 1166.4 455.04" xmlns="http://www.w3.org/2000/svg" version="1.1">
 <metadata>
  <rdf:RDF xmlns:dc="http://purl.org/dc/elements/1.1/" xmlns:cc="http://creativecommons.org/ns#" xmlns:rdf="http://www.w3.org/1999/02/22-rdf-syntax-ns#">
   <cc:Work>
    <dc:type rdf:resource="http://purl.org/dc/dcmitype/StillImage"/>
    <dc:date>2026-06-20T16:14:55.401679</dc:date>
    <dc:format>image/svg+xml</dc:format>
    <dc:creator>
     <cc:Agent>
      <dc:title>Matplotlib v3.10.8, https://matplotlib.org/</dc:title>
     </cc:Agent>
    </dc:creator>
   </cc:Work>
  </rdf:RDF>
 </metadata>
 <defs>
  <style type="text/css">*{stroke-linejoin: round; stroke-linecap: butt}</style>
 </defs>
 <g id="figure_1">
  <g id="patch_1">
   <path d="M 0 455.04 
L 1166.4 455.04 
L 1166.4 0 
L 0 0 
z
" style="fill: #ffffff"/>
  </g>
  <g id="axes_1">
   <g id="line2d_1">
    <path d="M 59.563636 63.84 
L 1106.836364 63.84 
" clip-path="url(#pb43874eee1)" style="fill: none; stroke: #000000; stroke-width: 1.5; stroke-linecap: round"/>
   </g>
   <g id="line2d_2">
    <path d="M 59.563636 111.84 
L 1106.836364 111.84 
" clip-path="url(#pb43874eee1)" style="fill: none; stroke: #000000; stroke-width: 1.5; stroke-linecap: round"/>
   </g>
   <g id="line2d_3">
    <path d="M 59.563636 159.84 
L 1106.836364 159.84 
" clip-path="url(#pb43874eee1)" style="fill: none; stroke: #000000; stroke-width: 1.5; stroke-linecap: round"/>
   </g>
   <g id="line2d_4">
    <path d="M 59.563636 207.84 
L 1106.836364 207.84 
" clip-path="url(#pb43874eee1)" style="fill: none; stroke: #000000; stroke-width: 1.5; stroke-linecap: round"/>
   </g>
   <g id="line2d_5">
    <path d="M 59.563636 255.84 
L 1106.836364 255.84 
" clip-path="url(#pb43874eee1)" style="fill: none; stroke: #000000; stroke-width: 1.5; stroke-linecap: round"/>
   </g>
   <g id="line2d_6">
    <path d="M 59.563636 303.84 
L 1106.836364 303.84 
" clip-path="url(#pb43874eee1)" style="fill: none; stroke: #000000; stroke-width: 1.5; stroke-linecap: round"/>
   </g>
   <g id="line2d_7">
    <path d="M 59.563636 351.84 
L 1106.836364 351.84 
" clip-path="url(#pb43874eee1)" style="fill: none; stroke: #000000; stroke-width: 1.5; stroke-linecap: round"/>
   </g>
   <g id="line2d_8">
    <path d="M 59.563636 399.84 
L 1106.836364 399.84 
" clip-path="url(#pb43874eee1)" style="fill: none; stroke: #000000; stroke-width: 1.5; stroke-linecap: round"/>
   </g>
   <g id="line2d_9">
    <path d="M 216.654545 63.84 
L 216.654545 111.84 
" clip-path="url(#pb43874eee1)" style="fill: none; stroke: #000000; stroke-width: 1.5; stroke-linecap: round"/>
   </g>
   <g id="line2d_10">
    <path d="M 269.018182 111.84 
L 269.018182 159.84 
" clip-path="url(#pb43874eee1)" style="fill: none; stroke: #000000; stroke-width: 1.5; stroke-linecap: round"/>
   </g>
   <g id="line2d_11">
    <path d="M 321.381818 159.84 
L 321.381818 207.84 
" clip-path="url(#pb43874eee1)" style="fill: none; stroke: #000000; stroke-width: 1.5; stroke-linecap: round"/>
   </g>
   <g id="line2d_12">
    <path d="M 373.745455 207.84 
L 373.745455 255.84 
" clip-path="url(#pb43874eee1)" style="fill: none; stroke: #000000; stroke-width: 1.5; stroke-linecap: round"/>
   </g>
   <g id="line2d_13">
    <path d="M 426.109091 255.84 
L 426.109091 303.84 
" clip-path="url(#pb43874eee1)" style="fill: none; stroke: #000000; stroke-width: 1.5; stroke-linecap: round"/>
   </g>
   <g id="line2d_14">
    <path d="M 478.472727 303.84 
L 478.472727 351.84 
" clip-path="url(#pb43874eee1)" style="fill: none; stroke: #000000; stroke-width: 1.5; stroke-linecap: round"/>
   </g>
   <g id="line2d_15">
    <path d="M 530.836364 351.84 
L 530.836364 399.84 
" clip-path="url(#pb43874eee1)" style="fill: none; stroke: #000000; stroke-width: 1.5; stroke-linecap: round"/>
   </g>
   <g id="line2d_16">
    <path d="M 583.2 63.84 
L 583.2 399.84 
" clip-path="url(#pb43874eee1)" style="fill: none; stroke: #000000; stroke-width: 1.5; stroke-linecap: round"/>
   </g>
   <g id="line2d_17">
    <path d="M 687.927273 63.84 
L 687.927273 159.84 
" clip-path="url(#pb43874eee1)" style="fill: none; stroke: #000000; stroke-width: 1.5; stroke-linecap: round"/>
   </g>
   <g id="line2d_18">
    <path d="M 740.290909 111.84 
L 740.290909 207.84 
" clip-path="url(#pb43874eee1)" style="fill: none; stroke: #000000; stroke-width: 1.5; stroke-linecap: round"/>
   </g>
   <g id="line2d_19">
    <path d="M 792.654545 159.84 
L 792.654545 255.84 
" clip-path="url(#pb43874eee1)" style="fill: none; stroke: #000000; stroke-width: 1.5; stroke-linecap: round"/>
   </g>
   <g id="line2d_20">
    <path d="M 845.018182 207.84 
L 845.018182 303.84 
" clip-path="url(#pb43874eee1)" style="fill: none; stroke: #000000; stroke-width: 1.5; stroke-linecap: round"/>
   </g>
   <g id="line2d_21">
    <path d="M 897.381818 255.84 
L 897.381818 351.84 
" clip-path="url(#pb43874eee1)" style="fill: none; stroke: #000000; stroke-width: 1.5; stroke-linecap: round"/>
   </g>
   <g id="line2d_22">
    <path d="M 949.745455 303.84 
L 949.745455 399.84 
" clip-path="url(#pb43874eee1)" style="fill: none; stroke: #000000; stroke-width: 1.5; stroke-linecap: round"/>
   </g>
   <g id="line2d_23">
    <path d="M 1002.109091 63.84 
L 1002.109091 351.84 
" clip-path="url(#pb43874eee1)" style="fill: none; stroke: #000000; stroke-width: 1.5; stroke-linecap: round"/>
   </g>
   <g id="line2d_24">
    <path d="M 1054.472727 111.84 
L 1054.472727 399.84 
" clip-path="url(#pb43874eee1)" style="fill: none; stroke: #000000; stroke-width: 1.5; stroke-linecap: round"/>
   </g>
   <g id="patch_2">
    <path d="M 1097.672727 45.84 
L 1116 45.84 
Q 1126.472727 45.84 1126.472727 55.44 
L 1126.472727 72.24 
Q 1126.472727 81.84 1116 81.84 
L 1097.672727 81.84 
Q 1087.2 81.84 1087.2 72.24 
L 1087.2 55.44 
Q 1087.2 45.84 1097.672727 45.84 
z
" clip-path="url(#pb43874eee1)" style="fill: #ffffff; stroke: #000000; stroke-width: 3; stroke-linejoin: miter"/>
   </g>
   <g id="text_1">
    <!-- 0 -->
    <g transform="translate(29.489162 67.459219) scale(0.14 -0.14)">
     <defs>
      <path id="ArialMT-30" d="M 266 2259 
Q 266 3072 433 3567 
Q 600 4063 929 4331 
Q 1259 4600 1759 4600 
Q 2128 4600 2406 4451 
Q 2684 4303 2865 4023 
Q 3047 3744 3150 3342 
Q 3253 2941 3253 2259 
Q 3253 1453 3087 958 
Q 2922 463 2592 192 
Q 2263 -78 1759 -78 
Q 1097 -78 719 397 
Q 266 969 266 2259 
z
M 844 2259 
Q 844 1131 1108 757 
Q 1372 384 1759 384 
Q 2147 384 2411 759 
Q 2675 1134 2675 2259 
Q 2675 3391 2411 3762 
Q 2147 4134 1753 4134 
Q 1366 4134 1134 3806 
Q 844 3388 844 2259 
z
" transform="scale(0.015625)"/>
     </defs>
     <use xlink:href="#ArialMT-30"/>
    </g>
   </g>
   <g id="text_2">
    <!-- 1 -->
    <g transform="translate(29.489162 115.459219) scale(0.14 -0.14)">
     <defs>
      <path id="ArialMT-31" d="M 2384 0 
L 1822 0 
L 1822 3584 
Q 1619 3391 1289 3197 
Q 959 3003 697 2906 
L 697 3450 
Q 1169 3672 1522 3987 
Q 1875 4303 2022 4600 
L 2384 4600 
L 2384 0 
z
" transform="scale(0.015625)"/>
     </defs>
     <use xlink:href="#ArialMT-31"/>
    </g>
   </g>
   <g id="text_3">
    <!-- 2 -->
    <g transform="translate(29.489162 163.459219) scale(0.14 -0.14)">
     <defs>
      <path id="ArialMT-32" d="M 3222 541 
L 3222 0 
L 194 0 
Q 188 203 259 391 
Q 375 700 629 1000 
Q 884 1300 1366 1694 
Q 2113 2306 2375 2664 
Q 2638 3022 2638 3341 
Q 2638 3675 2398 3904 
Q 2159 4134 1775 4134 
Q 1369 4134 1125 3890 
Q 881 3647 878 3216 
L 300 3275 
Q 359 3922 746 4261 
Q 1134 4600 1788 4600 
Q 2447 4600 2831 4234 
Q 3216 3869 3216 3328 
Q 3216 3053 3103 2787 
Q 2991 2522 2730 2228 
Q 2469 1934 1863 1422 
Q 1356 997 1212 845 
Q 1069 694 975 541 
L 3222 541 
z
" transform="scale(0.015625)"/>
     </defs>
     <use xlink:href="#ArialMT-32"/>
    </g>
   </g>
   <g id="text_4">
    <!-- 3 -->
    <g transform="translate(29.489162 211.459219) scale(0.14 -0.14)">
     <defs>
      <path id="ArialMT-33" d="M 269 1209 
L 831 1284 
Q 928 806 1161 595 
Q 1394 384 1728 384 
Q 2125 384 2398 659 
Q 2672 934 2672 1341 
Q 2672 1728 2419 1979 
Q 2166 2231 1775 2231 
Q 1616 2231 1378 2169 
L 1441 2663 
Q 1497 2656 1531 2656 
Q 1891 2656 2178 2843 
Q 2466 3031 2466 3422 
Q 2466 3731 2256 3934 
Q 2047 4138 1716 4138 
Q 1388 4138 1169 3931 
Q 950 3725 888 3313 
L 325 3413 
Q 428 3978 793 4289 
Q 1159 4600 1703 4600 
Q 2078 4600 2393 4439 
Q 2709 4278 2876 4000 
Q 3044 3722 3044 3409 
Q 3044 3113 2884 2869 
Q 2725 2625 2413 2481 
Q 2819 2388 3044 2092 
Q 3269 1797 3269 1353 
Q 3269 753 2831 336 
Q 2394 -81 1725 -81 
Q 1122 -81 723 278 
Q 325 638 269 1209 
z
" transform="scale(0.015625)"/>
     </defs>
     <use xlink:href="#ArialMT-33"/>
    </g>
   </g>
   <g id="text_5">
    <!-- 4 -->
    <g transform="translate(29.489162 259.459219) scale(0.14 -0.14)">
     <defs>
      <path id="ArialMT-34" d="M 2069 0 
L 2069 1097 
L 81 1097 
L 81 1613 
L 2172 4581 
L 2631 4581 
L 2631 1613 
L 3250 1613 
L 3250 1097 
L 2631 1097 
L 2631 0 
L 2069 0 
z
M 2069 1613 
L 2069 3678 
L 634 1613 
L 2069 1613 
z
" transform="scale(0.015625)"/>
     </defs>
     <use xlink:href="#ArialMT-34"/>
    </g>
   </g>
   <g id="text_6">
    <!-- 5 -->
    <g transform="translate(29.489162 307.459219) scale(0.14 -0.14)">
     <defs>
      <path id="ArialMT-35" d="M 266 1200 
L 856 1250 
Q 922 819 1161 601 
Q 1400 384 1738 384 
Q 2144 384 2425 690 
Q 2706 997 2706 1503 
Q 2706 1984 2436 2262 
Q 2166 2541 1728 2541 
Q 1456 2541 1237 2417 
Q 1019 2294 894 2097 
L 366 2166 
L 809 4519 
L 3088 4519 
L 3088 3981 
L 1259 3981 
L 1013 2750 
Q 1425 3038 1878 3038 
Q 2478 3038 2890 2622 
Q 3303 2206 3303 1553 
Q 3303 931 2941 478 
Q 2500 -78 1738 -78 
Q 1113 -78 717 272 
Q 322 622 266 1200 
z
" transform="scale(0.015625)"/>
     </defs>
     <use xlink:href="#ArialMT-35"/>
    </g>
   </g>
   <g id="text_7">
    <!-- 6 -->
    <g transform="translate(29.489162 355.459219) scale(0.14 -0.14)">
     <defs>
      <path id="ArialMT-36" d="M 3184 3459 
L 2625 3416 
Q 2550 3747 2413 3897 
Q 2184 4138 1850 4138 
Q 1581 4138 1378 3988 
Q 1113 3794 959 3422 
Q 806 3050 800 2363 
Q 1003 2672 1297 2822 
Q 1591 2972 1913 2972 
Q 2475 2972 2870 2558 
Q 3266 2144 3266 1488 
Q 3266 1056 3080 686 
Q 2894 316 2569 119 
Q 2244 -78 1831 -78 
Q 1128 -78 684 439 
Q 241 956 241 2144 
Q 241 3472 731 4075 
Q 1159 4600 1884 4600 
Q 2425 4600 2770 4297 
Q 3116 3994 3184 3459 
z
M 888 1484 
Q 888 1194 1011 928 
Q 1134 663 1356 523 
Q 1578 384 1822 384 
Q 2178 384 2434 671 
Q 2691 959 2691 1453 
Q 2691 1928 2437 2201 
Q 2184 2475 1800 2475 
Q 1419 2475 1153 2201 
Q 888 1928 888 1484 
z
" transform="scale(0.015625)"/>
     </defs>
     <use xlink:href="#ArialMT-36"/>
    </g>
   </g>
   <g id="text_8">
    <!-- 7 -->
    <g transform="translate(29.489162 403.459219) scale(0.14 -0.14)">
     <defs>
      <path id="ArialMT-37" d="M 303 3981 
L 303 4522 
L 3269 4522 
L 3269 4084 
Q 2831 3619 2401 2847 
Q 1972 2075 1738 1259 
Q 1569 684 1522 0 
L 944 0 
Q 953 541 1156 1306 
Q 1359 2072 1739 2783 
Q 2119 3494 2547 3981 
L 303 3981 
z
" transform="scale(0.015625)"/>
     </defs>
     <use xlink:href="#ArialMT-37"/>
    </g>
   </g>
   <g id="patch_3">
    <path d="M 216.654545 59.04 
C 218.043245 59.04 219.375255 59.545758 220.357214 60.445887 
C 221.339173 61.346017 221.890909 62.567025 221.890909 63.84 
C 221.890909 65.112975 221.339173 66.333983 220.357214 67.234113 
C 219.375255 68.134242 218.043245 68.64 216.654545 68.64 
C 215.265846 68.64 213.933836 68.134242 212.951877 67.234113 
C 211.969918 66.333983 211.418182 65.112975 211.418182 63.84 
C 211.418182 62.567025 211.969918 61.346017 212.951877 60.445887 
C 213.933836 59.545758 215.265846 59.04 216.654545 59.04 
z
" clip-path="url(#pb43874eee1)" style="stroke: #000000; stroke-width: 3; stroke-linejoin: miter"/>
   </g>
   <g id="patch_4">
    <path d="M 216.654545 97.44 
C 220.820645 97.44 224.816673 98.957275 227.76255 101.657662 
C 230.708427 104.35805 232.363636 108.021075 232.363636 111.84 
C 232.363636 115.658925 230.708427 119.32195 227.76255 122.022338 
C 224.816673 124.722725 220.820645 126.24 216.654545 126.24 
C 212.488446 126.24 208.492418 124.722725 205.546541 122.022338 
C 202.600663 119.32195 200.945455 115.658925 200.945455 111.84 
C 200.945455 108.021075 202.600663 104.35805 205.546541 101.657662 
C 208.492418 98.957275 212.488446 97.44 216.654545 97.44 
z
" clip-path="url(#pb43874eee1)" style="fill: #ffffff; stroke: #000000; stroke-width: 1.5; stroke-linejoin: miter"/>
   </g>
   <g id="patch_5">
    <path d="M 269.018182 107.04 
C 270.406882 107.04 271.738891 107.545758 272.72085 108.445887 
C 273.702809 109.346017 274.254545 110.567025 274.254545 111.84 
C 274.254545 113.112975 273.702809 114.333983 272.72085 115.234113 
C 271.738891 116.134242 270.406882 116.64 269.018182 116.64 
C 267.629482 116.64 266.297473 116.134242 265.315514 115.234113 
C 264.333554 114.333983 263.781818 113.112975 263.781818 111.84 
C 263.781818 110.567025 264.333554 109.346017 265.315514 108.445887 
C 266.297473 107.545758 267.629482 107.04 269.018182 107.04 
z
" clip-path="url(#pb43874eee1)" style="stroke: #000000; stroke-width: 3; stroke-linejoin: miter"/>
   </g>
   <g id="patch_6">
    <path d="M 269.018182 145.44 
C 273.184281 145.44 277.180309 146.957275 280.126187 149.657662 
C 283.072064 152.35805 284.727273 156.021075 284.727273 159.84 
C 284.727273 163.658925 283.072064 167.32195 280.126187 170.022338 
C 277.180309 172.722725 273.184281 174.24 269.018182 174.24 
C 264.852082 174.24 260.856054 172.722725 257.910177 170.022338 
C 254.9643 167.32195 253.309091 163.658925 253.309091 159.84 
C 253.309091 156.021075 254.9643 152.35805 257.910177 149.657662 
C 260.856054 146.957275 264.852082 145.44 269.018182 145.44 
z
" clip-path="url(#pb43874eee1)" style="fill: #ffffff; stroke: #000000; stroke-width: 1.5; stroke-linejoin: miter"/>
   </g>
   <g id="patch_7">
    <path d="M 321.381818 155.04 
C 322.770518 155.04 324.102527 155.545758 325.084486 156.445887 
C 326.066446 157.346017 326.618182 158.567025 326.618182 159.84 
C 326.618182 161.112975 326.066446 162.333983 325.084486 163.234113 
C 324.102527 164.134242 322.770518 164.64 321.381818 164.64 
C 319.993118 164.64 318.661109 164.134242 317.67915 163.234113 
C 316.697191 162.333983 316.145455 161.112975 316.145455 159.84 
C 316.145455 158.567025 316.697191 157.346017 317.67915 156.445887 
C 318.661109 155.545758 319.993118 155.04 321.381818 155.04 
z
" clip-path="url(#pb43874eee1)" style="stroke: #000000; stroke-width: 3; stroke-linejoin: miter"/>
   </g>
   <g id="patch_8">
    <path d="M 321.381818 193.44 
C 325.547918 193.44 329.543946 194.957275 332.489823 197.657662 
C 335.4357 200.35805 337.090909 204.021075 337.090909 207.84 
C 337.090909 211.658925 335.4357 215.32195 332.489823 218.022338 
C 329.543946 220.722725 325.547918 222.24 321.381818 222.24 
C 317.215719 222.24 313.219691 220.722725 310.273813 218.022338 
C 307.327936 215.32195 305.672727 211.658925 305.672727 207.84 
C 305.672727 204.021075 307.327936 200.35805 310.273813 197.657662 
C 313.219691 194.957275 317.215719 193.44 321.381818 193.44 
z
" clip-path="url(#pb43874eee1)" style="fill: #ffffff; stroke: #000000; stroke-width: 1.5; stroke-linejoin: miter"/>
   </g>
   <g id="patch_9">
    <path d="M 373.745455 203.04 
C 375.134154 203.04 376.466164 203.545758 377.448123 204.445887 
C 378.430082 205.346017 378.981818 206.567025 378.981818 207.84 
C 378.981818 209.112975 378.430082 210.333983 377.448123 211.234113 
C 376.466164 212.134242 375.134154 212.64 373.745455 212.64 
C 372.356755 212.64 371.024745 212.134242 370.042786 211.234113 
C 369.060827 210.333983 368.509091 209.112975 368.509091 207.84 
C 368.509091 206.567025 369.060827 205.346017 370.042786 204.445887 
C 371.024745 203.545758 372.356755 203.04 373.745455 203.04 
z
" clip-path="url(#pb43874eee1)" style="stroke: #000000; stroke-width: 3; stroke-linejoin: miter"/>
   </g>
   <g id="patch_10">
    <path d="M 373.745455 241.44 
C 377.911554 241.44 381.907582 242.957275 384.853459 245.657662 
C 387.799337 248.35805 389.454545 252.021075 389.454545 255.84 
C 389.454545 259.658925 387.799337 263.32195 384.853459 266.022338 
C 381.907582 268.722725 377.911554 270.24 373.745455 270.24 
C 369.579355 270.24 365.583327 268.722725 362.63745 266.022338 
C 359.691573 263.32195 358.036364 259.658925 358.036364 255.84 
C 358.036364 252.021075 359.691573 248.35805 362.63745 245.657662 
C 365.583327 242.957275 369.579355 241.44 373.745455 241.44 
z
" clip-path="url(#pb43874eee1)" style="fill: #ffffff; stroke: #000000; stroke-width: 1.5; stroke-linejoin: miter"/>
   </g>
   <g id="patch_11">
    <path d="M 426.109091 251.04 
C 427.497791 251.04 428.8298 251.545758 429.811759 252.445887 
C 430.793718 253.346017 431.345455 254.567025 431.345455 255.84 
C 431.345455 257.112975 430.793718 258.333983 429.811759 259.234113 
C 428.8298 260.134242 427.497791 260.64 426.109091 260.64 
C 424.720391 260.64 423.388382 260.134242 422.406423 259.234113 
C 421.424464 258.333983 420.872727 257.112975 420.872727 255.84 
C 420.872727 254.567025 421.424464 253.346017 422.406423 252.445887 
C 423.388382 251.545758 424.720391 251.04 426.109091 251.04 
z
" clip-path="url(#pb43874eee1)" style="stroke: #000000; stroke-width: 3; stroke-linejoin: miter"/>
   </g>
   <g id="patch_12">
    <path d="M 426.109091 289.44 
C 430.275191 289.44 434.271218 290.957275 437.217096 293.657662 
C 440.162973 296.35805 441.818182 300.021075 441.818182 303.84 
C 441.818182 307.658925 440.162973 311.32195 437.217096 314.022338 
C 434.271218 316.722725 430.275191 318.24 426.109091 318.24 
C 421.942991 318.24 417.946963 316.722725 415.001086 314.022338 
C 412.055209 311.32195 410.4 307.658925 410.4 303.84 
C 410.4 300.021075 412.055209 296.35805 415.001086 293.657662 
C 417.946963 290.957275 421.942991 289.44 426.109091 289.44 
z
" clip-path="url(#pb43874eee1)" style="fill: #ffffff; stroke: #000000; stroke-width: 1.5; stroke-linejoin: miter"/>
   </g>
   <g id="patch_13">
    <path d="M 478.472727 299.04 
C 479.861427 299.04 481.193436 299.545758 482.175396 300.445887 
C 483.157355 301.346017 483.709091 302.567025 483.709091 303.84 
C 483.709091 305.112975 483.157355 306.333983 482.175396 307.234113 
C 481.193436 308.134242 479.861427 308.64 478.472727 308.64 
C 477.084027 308.64 475.752018 308.134242 474.770059 307.234113 
C 473.7881 306.333983 473.236364 305.112975 473.236364 303.84 
C 473.236364 302.567025 473.7881 301.346017 474.770059 300.445887 
C 475.752018 299.545758 477.084027 299.04 478.472727 299.04 
z
" clip-path="url(#pb43874eee1)" style="stroke: #000000; stroke-width: 3; stroke-linejoin: miter"/>
   </g>
   <g id="patch_14">
    <path d="M 478.472727 337.44 
C 482.638827 337.44 486.634855 338.957275 489.580732 341.657662 
C 492.526609 344.35805 494.181818 348.021075 494.181818 351.84 
C 494.181818 355.658925 492.526609 359.32195 489.580732 362.022338 
C 486.634855 364.722725 482.638827 366.24 478.472727 366.24 
C 474.306628 366.24 470.3106 364.722725 467.364723 362.022338 
C 464.418845 359.32195 462.763636 355.658925 462.763636 351.84 
C 462.763636 348.021075 464.418845 344.35805 467.364723 341.657662 
C 470.3106 338.957275 474.306628 337.44 478.472727 337.44 
z
" clip-path="url(#pb43874eee1)" style="fill: #ffffff; stroke: #000000; stroke-width: 1.5; stroke-linejoin: miter"/>
   </g>
   <g id="patch_15">
    <path d="M 530.836364 347.04 
C 532.225064 347.04 533.557073 347.545758 534.539032 348.445887 
C 535.520991 349.346017 536.072727 350.567025 536.072727 351.84 
C 536.072727 353.112975 535.520991 354.333983 534.539032 355.234113 
C 533.557073 356.134242 532.225064 356.64 530.836364 356.64 
C 529.447664 356.64 528.115654 356.134242 527.133695 355.234113 
C 526.151736 354.333983 525.6 353.112975 525.6 351.84 
C 525.6 350.567025 526.151736 349.346017 527.133695 348.445887 
C 528.115654 347.545758 529.447664 347.04 530.836364 347.04 
z
" clip-path="url(#pb43874eee1)" style="stroke: #000000; stroke-width: 3; stroke-linejoin: miter"/>
   </g>
   <g id="patch_16">
    <path d="M 530.836364 385.44 
C 535.002463 385.44 538.998491 386.957275 541.944368 389.657662 
C 544.890246 392.35805 546.545455 396.021075 546.545455 399.84 
C 546.545455 403.658925 544.890246 407.32195 541.944368 410.022338 
C 538.998491 412.722725 535.002463 414.24 530.836364 414.24 
C 526.670264 414.24 522.674236 412.722725 519.728359 410.022338 
C 516.782482 407.32195 515.127273 403.658925 515.127273 399.84 
C 515.127273 396.021075 516.782482 392.35805 519.728359 389.657662 
C 522.674236 386.957275 526.670264 385.44 530.836364 385.44 
z
" clip-path="url(#pb43874eee1)" style="fill: #ffffff; stroke: #000000; stroke-width: 1.5; stroke-linejoin: miter"/>
   </g>
   <g id="patch_17">
    <path d="M 583.2 395.04 
C 584.5887 395.04 585.920709 395.545758 586.902668 396.445887 
C 587.884627 397.346017 588.436364 398.567025 588.436364 399.84 
C 588.436364 401.112975 587.884627 402.333983 586.902668 403.234113 
C 585.920709 404.134242 584.5887 404.64 583.2 404.64 
C 581.8113 404.64 580.479291 404.134242 579.497332 403.234113 
C 578.515373 402.333983 577.963636 401.112975 577.963636 399.84 
C 577.963636 398.567025 578.515373 397.346017 579.497332 396.445887 
C 580.479291 395.545758 581.8113 395.04 583.2 395.04 
z
" clip-path="url(#pb43874eee1)" style="stroke: #000000; stroke-width: 3; stroke-linejoin: miter"/>
   </g>
   <g id="patch_18">
    <path d="M 583.2 49.44 
C 587.3661 49.44 591.362127 50.957275 594.308005 53.657662 
C 597.253882 56.35805 598.909091 60.021075 598.909091 63.84 
C 598.909091 67.658925 597.253882 71.32195 594.308005 74.022338 
C 591.362127 76.722725 587.3661 78.24 583.2 78.24 
C 579.0339 78.24 575.037873 76.722725 572.091995 74.022338 
C 569.146118 71.32195 567.490909 67.658925 567.490909 63.84 
C 567.490909 60.021075 569.146118 56.35805 572.091995 53.657662 
C 575.037873 50.957275 579.0339 49.44 583.2 49.44 
z
" clip-path="url(#pb43874eee1)" style="fill: #ffffff; stroke: #000000; stroke-width: 1.5; stroke-linejoin: miter"/>
   </g>
   <g id="patch_19">
    <path d="M 687.927273 59.04 
C 689.315973 59.04 690.647982 59.545758 691.629941 60.445887 
C 692.6119 61.346017 693.163636 62.567025 693.163636 63.84 
C 693.163636 65.112975 692.6119 66.333983 691.629941 67.234113 
C 690.647982 68.134242 689.315973 68.64 687.927273 68.64 
C 686.538573 68.64 685.206564 68.134242 684.224604 67.234113 
C 683.242645 66.333983 682.690909 65.112975 682.690909 63.84 
C 682.690909 62.567025 683.242645 61.346017 684.224604 60.445887 
C 685.206564 59.545758 686.538573 59.04 687.927273 59.04 
z
" clip-path="url(#pb43874eee1)" style="stroke: #000000; stroke-width: 3; stroke-linejoin: miter"/>
   </g>
   <g id="patch_20">
    <path d="M 687.927273 145.44 
C 692.093372 145.44 696.0894 146.957275 699.035277 149.657662 
C 701.981155 152.35805 703.636364 156.021075 703.636364 159.84 
C 703.636364 163.658925 701.981155 167.32195 699.035277 170.022338 
C 696.0894 172.722725 692.093372 174.24 687.927273 174.24 
C 683.761173 174.24 679.765145 172.722725 676.819268 170.022338 
C 673.873391 167.32195 672.218182 163.658925 672.218182 159.84 
C 672.218182 156.021075 673.873391 152.35805 676.819268 149.657662 
C 679.765145 146.957275 683.761173 145.44 687.927273 145.44 
z
" clip-path="url(#pb43874eee1)" style="fill: #ffffff; stroke: #000000; stroke-width: 1.5; stroke-linejoin: miter"/>
   </g>
   <g id="patch_21">
    <path d="M 740.290909 107.04 
C 741.679609 107.04 743.011618 107.545758 743.993577 108.445887 
C 744.975536 109.346017 745.527273 110.567025 745.527273 111.84 
C 745.527273 113.112975 744.975536 114.333983 743.993577 115.234113 
C 743.011618 116.134242 741.679609 116.64 740.290909 116.64 
C 738.902209 116.64 737.5702 116.134242 736.588241 115.234113 
C 735.606282 114.333983 735.054545 113.112975 735.054545 111.84 
C 735.054545 110.567025 735.606282 109.346017 736.588241 108.445887 
C 737.5702 107.545758 738.902209 107.04 740.290909 107.04 
z
" clip-path="url(#pb43874eee1)" style="stroke: #000000; stroke-width: 3; stroke-linejoin: miter"/>
   </g>
   <g id="patch_22">
    <path d="M 740.290909 193.44 
C 744.457009 193.44 748.453037 194.957275 751.398914 197.657662 
C 754.344791 200.35805 756 204.021075 756 207.84 
C 756 211.658925 754.344791 215.32195 751.398914 218.022338 
C 748.453037 220.722725 744.457009 222.24 740.290909 222.24 
C 736.124809 222.24 732.128782 220.722725 729.182904 218.022338 
C 726.237027 215.32195 724.581818 211.658925 724.581818 207.84 
C 724.581818 204.021075 726.237027 200.35805 729.182904 197.657662 
C 732.128782 194.957275 736.124809 193.44 740.290909 193.44 
z
" clip-path="url(#pb43874eee1)" style="fill: #ffffff; stroke: #000000; stroke-width: 1.5; stroke-linejoin: miter"/>
   </g>
   <g id="patch_23">
    <path d="M 792.654545 155.04 
C 794.043245 155.04 795.375255 155.545758 796.357214 156.445887 
C 797.339173 157.346017 797.890909 158.567025 797.890909 159.84 
C 797.890909 161.112975 797.339173 162.333983 796.357214 163.234113 
C 795.375255 164.134242 794.043245 164.64 792.654545 164.64 
C 791.265846 164.64 789.933836 164.134242 788.951877 163.234113 
C 787.969918 162.333983 787.418182 161.112975 787.418182 159.84 
C 787.418182 158.567025 787.969918 157.346017 788.951877 156.445887 
C 789.933836 155.545758 791.265846 155.04 792.654545 155.04 
z
" clip-path="url(#pb43874eee1)" style="stroke: #000000; stroke-width: 3; stroke-linejoin: miter"/>
   </g>
   <g id="patch_24">
    <path d="M 792.654545 241.44 
C 796.820645 241.44 800.816673 242.957275 803.76255 245.657662 
C 806.708427 248.35805 808.363636 252.021075 808.363636 255.84 
C 808.363636 259.658925 806.708427 263.32195 803.76255 266.022338 
C 800.816673 268.722725 796.820645 270.24 792.654545 270.24 
C 788.488446 270.24 784.492418 268.722725 781.546541 266.022338 
C 778.600663 263.32195 776.945455 259.658925 776.945455 255.84 
C 776.945455 252.021075 778.600663 248.35805 781.546541 245.657662 
C 784.492418 242.957275 788.488446 241.44 792.654545 241.44 
z
" clip-path="url(#pb43874eee1)" style="fill: #ffffff; stroke: #000000; stroke-width: 1.5; stroke-linejoin: miter"/>
   </g>
   <g id="patch_25">
    <path d="M 845.018182 203.04 
C 846.406882 203.04 847.738891 203.545758 848.72085 204.445887 
C 849.702809 205.346017 850.254545 206.567025 850.254545 207.84 
C 850.254545 209.112975 849.702809 210.333983 848.72085 211.234113 
C 847.738891 212.134242 846.406882 212.64 845.018182 212.64 
C 843.629482 212.64 842.297473 212.134242 841.315514 211.234113 
C 840.333554 210.333983 839.781818 209.112975 839.781818 207.84 
C 839.781818 206.567025 840.333554 205.346017 841.315514 204.445887 
C 842.297473 203.545758 843.629482 203.04 845.018182 203.04 
z
" clip-path="url(#pb43874eee1)" style="stroke: #000000; stroke-width: 3; stroke-linejoin: miter"/>
   </g>
   <g id="patch_26">
    <path d="M 845.018182 289.44 
C 849.184281 289.44 853.180309 290.957275 856.126187 293.657662 
C 859.072064 296.35805 860.727273 300.021075 860.727273 303.84 
C 860.727273 307.658925 859.072064 311.32195 856.126187 314.022338 
C 853.180309 316.722725 849.184281 318.24 845.018182 318.24 
C 840.852082 318.24 836.856054 316.722725 833.910177 314.022338 
C 830.9643 311.32195 829.309091 307.658925 829.309091 303.84 
C 829.309091 300.021075 830.9643 296.35805 833.910177 293.657662 
C 836.856054 290.957275 840.852082 289.44 845.018182 289.44 
z
" clip-path="url(#pb43874eee1)" style="fill: #ffffff; stroke: #000000; stroke-width: 1.5; stroke-linejoin: miter"/>
   </g>
   <g id="patch_27">
    <path d="M 897.381818 251.04 
C 898.770518 251.04 900.102527 251.545758 901.084486 252.445887 
C 902.066446 253.346017 902.618182 254.567025 902.618182 255.84 
C 902.618182 257.112975 902.066446 258.333983 901.084486 259.234113 
C 900.102527 260.134242 898.770518 260.64 897.381818 260.64 
C 895.993118 260.64 894.661109 260.134242 893.67915 259.234113 
C 892.697191 258.333983 892.145455 257.112975 892.145455 255.84 
C 892.145455 254.567025 892.697191 253.346017 893.67915 252.445887 
C 894.661109 251.545758 895.993118 251.04 897.381818 251.04 
z
" clip-path="url(#pb43874eee1)" style="stroke: #000000; stroke-width: 3; stroke-linejoin: miter"/>
   </g>
   <g id="patch_28">
    <path d="M 897.381818 337.44 
C 901.547918 337.44 905.543946 338.957275 908.489823 341.657662 
C 911.4357 344.35805 913.090909 348.021075 913.090909 351.84 
C 913.090909 355.658925 911.4357 359.32195 908.489823 362.022338 
C 905.543946 364.722725 901.547918 366.24 897.381818 366.24 
C 893.215719 366.24 889.219691 364.722725 886.273813 362.022338 
C 883.327936 359.32195 881.672727 355.658925 881.672727 351.84 
C 881.672727 348.021075 883.327936 344.35805 886.273813 341.657662 
C 889.219691 338.957275 893.215719 337.44 897.381818 337.44 
z
" clip-path="url(#pb43874eee1)" style="fill: #ffffff; stroke: #000000; stroke-width: 1.5; stroke-linejoin: miter"/>
   </g>
   <g id="patch_29">
    <path d="M 949.745455 299.04 
C 951.134154 299.04 952.466164 299.545758 953.448123 300.445887 
C 954.430082 301.346017 954.981818 302.567025 954.981818 303.84 
C 954.981818 305.112975 954.430082 306.333983 953.448123 307.234113 
C 952.466164 308.134242 951.134154 308.64 949.745455 308.64 
C 948.356755 308.64 947.024745 308.134242 946.042786 307.234113 
C 945.060827 306.333983 944.509091 305.112975 944.509091 303.84 
C 944.509091 302.567025 945.060827 301.346017 946.042786 300.445887 
C 947.024745 299.545758 948.356755 299.04 949.745455 299.04 
z
" clip-path="url(#pb43874eee1)" style="stroke: #000000; stroke-width: 3; stroke-linejoin: miter"/>
   </g>
   <g id="patch_30">
    <path d="M 949.745455 385.44 
C 953.911554 385.44 957.907582 386.957275 960.853459 389.657662 
C 963.799337 392.35805 965.454545 396.021075 965.454545 399.84 
C 965.454545 403.658925 963.799337 407.32195 960.853459 410.022338 
C 957.907582 412.722725 953.911554 414.24 949.745455 414.24 
C 945.579355 414.24 941.583327 412.722725 938.63745 410.022338 
C 935.691573 407.32195 934.036364 403.658925 934.036364 399.84 
C 934.036364 396.021075 935.691573 392.35805 938.63745 389.657662 
C 941.583327 386.957275 945.579355 385.44 949.745455 385.44 
z
" clip-path="url(#pb43874eee1)" style="fill: #ffffff; stroke: #000000; stroke-width: 1.5; stroke-linejoin: miter"/>
   </g>
   <g id="patch_31">
    <path d="M 1002.109091 347.04 
C 1003.497791 347.04 1004.8298 347.545758 1005.811759 348.445887 
C 1006.793718 349.346017 1007.345455 350.567025 1007.345455 351.84 
C 1007.345455 353.112975 1006.793718 354.333983 1005.811759 355.234113 
C 1004.8298 356.134242 1003.497791 356.64 1002.109091 356.64 
C 1000.720391 356.64 999.388382 356.134242 998.406423 355.234113 
C 997.424464 354.333983 996.872727 353.112975 996.872727 351.84 
C 996.872727 350.567025 997.424464 349.346017 998.406423 348.445887 
C 999.388382 347.545758 1000.720391 347.04 1002.109091 347.04 
z
" clip-path="url(#pb43874eee1)" style="stroke: #000000; stroke-width: 3; stroke-linejoin: miter"/>
   </g>
   <g id="patch_32">
    <path d="M 1002.109091 49.44 
C 1006.275191 49.44 1010.271218 50.957275 1013.217096 53.657662 
C 1016.162973 56.35805 1017.818182 60.021075 1017.818182 63.84 
C 1017.818182 67.658925 1016.162973 71.32195 1013.217096 74.022338 
C 1010.271218 76.722725 1006.275191 78.24 1002.109091 78.24 
C 997.942991 78.24 993.946963 76.722725 991.001086 74.022338 
C 988.055209 71.32195 986.4 67.658925 986.4 63.84 
C 986.4 60.021075 988.055209 56.35805 991.001086 53.657662 
C 993.946963 50.957275 997.942991 49.44 1002.109091 49.44 
z
" clip-path="url(#pb43874eee1)" style="fill: #ffffff; stroke: #000000; stroke-width: 1.5; stroke-linejoin: miter"/>
   </g>
   <g id="patch_33">
    <path d="M 1054.472727 395.04 
C 1055.861427 395.04 1057.193436 395.545758 1058.175396 396.445887 
C 1059.157355 397.346017 1059.709091 398.567025 1059.709091 399.84 
C 1059.709091 401.112975 1059.157355 402.333983 1058.175396 403.234113 
C 1057.193436 404.134242 1055.861427 404.64 1054.472727 404.64 
C 1053.084027 404.64 1051.752018 404.134242 1050.770059 403.234113 
C 1049.7881 402.333983 1049.236364 401.112975 1049.236364 399.84 
C 1049.236364 398.567025 1049.7881 397.346017 1050.770059 396.445887 
C 1051.752018 395.545758 1053.084027 395.04 1054.472727 395.04 
z
" clip-path="url(#pb43874eee1)" style="stroke: #000000; stroke-width: 3; stroke-linejoin: miter"/>
   </g>
   <g id="patch_34">
    <path d="M 1054.472727 97.44 
C 1058.638827 97.44 1062.634855 98.957275 1065.580732 101.657662 
C 1068.526609 104.35805 1070.181818 108.021075 1070.181818 111.84 
C 1070.181818 115.658925 1068.526609 119.32195 1065.580732 122.022338 
C 1062.634855 124.722725 1058.638827 126.24 1054.472727 126.24 
C 1050.306628 126.24 1046.3106 124.722725 1043.364723 122.022338 
C 1040.418845 119.32195 1038.763636 115.658925 1038.763636 111.84 
C 1038.763636 108.021075 1040.418845 104.35805 1043.364723 101.657662 
C 1046.3106 98.957275 1050.306628 97.44 1054.472727 97.44 
z
" clip-path="url(#pb43874eee1)" style="fill: #ffffff; stroke: #000000; stroke-width: 1.5; stroke-linejoin: miter"/>
   </g>
   <g id="patch_35">
    <path d="M 1095.054545 69.24 
C 1095.054545 66.615364 1096.296688 64.095541 1098.50536 62.239643 
C 1100.714032 60.383745 1103.71283 59.34 1106.836364 59.34 
C 1109.959898 59.34 1112.958695 60.383745 1115.167367 62.239643 
C 1117.376039 64.095541 1118.618182 66.615364 1118.618182 69.24 
" clip-path="url(#pb43874eee1)" style="fill: none; stroke: #000000; stroke-width: 3; stroke-linejoin: miter"/>
   </g>
   <g id="patch_36">
    <path d="M 102.763636 45.84 
L 121.090909 45.84 
Q 131.563636 45.84 131.563636 55.44 
L 131.563636 72.24 
Q 131.563636 81.84 121.090909 81.84 
L 102.763636 81.84 
Q 92.290909 81.84 92.290909 72.24 
L 92.290909 55.44 
Q 92.290909 45.84 102.763636 45.84 
z
" clip-path="url(#pb43874eee1)" style="fill: #ffffff; stroke: #000000; stroke-width: 3; stroke-linejoin: miter"/>
   </g>
   <g id="patch_37">
    <path d="M 102.763636 93.84 
L 121.090909 93.84 
Q 131.563636 93.84 131.563636 103.44 
L 131.563636 120.24 
Q 131.563636 129.84 121.090909 129.84 
L 102.763636 129.84 
Q 92.290909 129.84 92.290909 120.24 
L 92.290909 103.44 
Q 92.290909 93.84 102.763636 93.84 
z
" clip-path="url(#pb43874eee1)" style="fill: #ffffff; stroke: #000000; stroke-width: 3; stroke-linejoin: miter"/>
   </g>
   <g id="patch_38">
    <path d="M 102.763636 141.84 
L 121.090909 141.84 
Q 131.563636 141.84 131.563636 151.44 
L 131.563636 168.24 
Q 131.563636 177.84 121.090909 177.84 
L 102.763636 177.84 
Q 92.290909 177.84 92.290909 168.24 
L 92.290909 151.44 
Q 92.290909 141.84 102.763636 141.84 
z
" clip-path="url(#pb43874eee1)" style="fill: #ffffff; stroke: #000000; stroke-width: 3; stroke-linejoin: miter"/>
   </g>
   <g id="patch_39">
    <path d="M 102.763636 189.84 
L 121.090909 189.84 
Q 131.563636 189.84 131.563636 199.44 
L 131.563636 216.24 
Q 131.563636 225.84 121.090909 225.84 
L 102.763636 225.84 
Q 92.290909 225.84 92.290909 216.24 
L 92.290909 199.44 
Q 92.290909 189.84 102.763636 189.84 
z
" clip-path="url(#pb43874eee1)" style="fill: #ffffff; stroke: #000000; stroke-width: 3; stroke-linejoin: miter"/>
   </g>
   <g id="patch_40">
    <path d="M 102.763636 237.84 
L 121.090909 237.84 
Q 131.563636 237.84 131.563636 247.44 
L 131.563636 264.24 
Q 131.563636 273.84 121.090909 273.84 
L 102.763636 273.84 
Q 92.290909 273.84 92.290909 264.24 
L 92.290909 247.44 
Q 92.290909 237.84 102.763636 237.84 
z
" clip-path="url(#pb43874eee1)" style="fill: #ffffff; stroke: #000000; stroke-width: 3; stroke-linejoin: miter"/>
   </g>
   <g id="patch_41">
    <path d="M 102.763636 285.84 
L 121.090909 285.84 
Q 131.563636 285.84 131.563636 295.44 
L 131.563636 312.24 
Q 131.563636 321.84 121.090909 321.84 
L 102.763636 321.84 
Q 92.290909 321.84 92.290909 312.24 
L 92.290909 295.44 
Q 92.290909 285.84 102.763636 285.84 
z
" clip-path="url(#pb43874eee1)" style="fill: #ffffff; stroke: #000000; stroke-width: 3; stroke-linejoin: miter"/>
   </g>
   <g id="patch_42">
    <path d="M 102.763636 333.84 
L 121.090909 333.84 
Q 131.563636 333.84 131.563636 343.44 
L 131.563636 360.24 
Q 131.563636 369.84 121.090909 369.84 
L 102.763636 369.84 
Q 92.290909 369.84 92.290909 360.24 
L 92.290909 343.44 
Q 92.290909 333.84 102.763636 333.84 
z
" clip-path="url(#pb43874eee1)" style="fill: #ffffff; stroke: #000000; stroke-width: 3; stroke-linejoin: miter"/>
   </g>
   <g id="patch_43">
    <path d="M 102.763636 381.84 
L 121.090909 381.84 
Q 131.563636 381.84 131.563636 391.44 
L 131.563636 408.24 
Q 131.563636 417.84 121.090909 417.84 
L 102.763636 417.84 
Q 92.290909 417.84 92.290909 408.24 
L 92.290909 391.44 
Q 92.290909 381.84 102.763636 381.84 
z
" clip-path="url(#pb43874eee1)" style="fill: #ffffff; stroke: #000000; stroke-width: 3; stroke-linejoin: miter"/>
   </g>
   <g id="patch_44">
    <path d="M 155.127273 45.84 
L 173.454545 45.84 
Q 183.927273 45.84 183.927273 55.44 
L 183.927273 72.24 
Q 183.927273 81.84 173.454545 81.84 
L 155.127273 81.84 
Q 144.654545 81.84 144.654545 72.24 
L 144.654545 55.44 
Q 144.654545 45.84 155.127273 45.84 
z
" clip-path="url(#pb43874eee1)" style="fill: #ffffff; stroke: #000000; stroke-width: 3; stroke-linejoin: miter"/>
   </g>
   <g id="patch_45">
    <path d="M 155.127273 93.84 
L 173.454545 93.84 
Q 183.927273 93.84 183.927273 103.44 
L 183.927273 120.24 
Q 183.927273 129.84 173.454545 129.84 
L 155.127273 129.84 
Q 144.654545 129.84 144.654545 120.24 
L 144.654545 103.44 
Q 144.654545 93.84 155.127273 93.84 
z
" clip-path="url(#pb43874eee1)" style="fill: #ffffff; stroke: #000000; stroke-width: 3; stroke-linejoin: miter"/>
   </g>
   <g id="patch_46">
    <path d="M 155.127273 141.84 
L 173.454545 141.84 
Q 183.927273 141.84 183.927273 151.44 
L 183.927273 168.24 
Q 183.927273 177.84 173.454545 177.84 
L 155.127273 177.84 
Q 144.654545 177.84 144.654545 168.24 
L 144.654545 151.44 
Q 144.654545 141.84 155.127273 141.84 
z
" clip-path="url(#pb43874eee1)" style="fill: #ffffff; stroke: #000000; stroke-width: 3; stroke-linejoin: miter"/>
   </g>
   <g id="patch_47">
    <path d="M 155.127273 189.84 
L 173.454545 189.84 
Q 183.927273 189.84 183.927273 199.44 
L 183.927273 216.24 
Q 183.927273 225.84 173.454545 225.84 
L 155.127273 225.84 
Q 144.654545 225.84 144.654545 216.24 
L 144.654545 199.44 
Q 144.654545 189.84 155.127273 189.84 
z
" clip-path="url(#pb43874eee1)" style="fill: #ffffff; stroke: #000000; stroke-width: 3; stroke-linejoin: miter"/>
   </g>
   <g id="patch_48">
    <path d="M 155.127273 237.84 
L 173.454545 237.84 
Q 183.927273 237.84 183.927273 247.44 
L 183.927273 264.24 
Q 183.927273 273.84 173.454545 273.84 
L 155.127273 273.84 
Q 144.654545 273.84 144.654545 264.24 
L 144.654545 247.44 
Q 144.654545 237.84 155.127273 237.84 
z
" clip-path="url(#pb43874eee1)" style="fill: #ffffff; stroke: #000000; stroke-width: 3; stroke-linejoin: miter"/>
   </g>
   <g id="patch_49">
    <path d="M 155.127273 285.84 
L 173.454545 285.84 
Q 183.927273 285.84 183.927273 295.44 
L 183.927273 312.24 
Q 183.927273 321.84 173.454545 321.84 
L 155.127273 321.84 
Q 144.654545 321.84 144.654545 312.24 
L 144.654545 295.44 
Q 144.654545 285.84 155.127273 285.84 
z
" clip-path="url(#pb43874eee1)" style="fill: #ffffff; stroke: #000000; stroke-width: 3; stroke-linejoin: miter"/>
   </g>
   <g id="patch_50">
    <path d="M 155.127273 333.84 
L 173.454545 333.84 
Q 183.927273 333.84 183.927273 343.44 
L 183.927273 360.24 
Q 183.927273 369.84 173.454545 369.84 
L 155.127273 369.84 
Q 144.654545 369.84 144.654545 360.24 
L 144.654545 343.44 
Q 144.654545 333.84 155.127273 333.84 
z
" clip-path="url(#pb43874eee1)" style="fill: #ffffff; stroke: #000000; stroke-width: 3; stroke-linejoin: miter"/>
   </g>
   <g id="patch_51">
    <path d="M 155.127273 381.84 
L 173.454545 381.84 
Q 183.927273 381.84 183.927273 391.44 
L 183.927273 408.24 
Q 183.927273 417.84 173.454545 417.84 
L 155.127273 417.84 
Q 144.654545 417.84 144.654545 408.24 
L 144.654545 391.44 
Q 144.654545 381.84 155.127273 381.84 
z
" clip-path="url(#pb43874eee1)" style="fill: #ffffff; stroke: #000000; stroke-width: 3; stroke-linejoin: miter"/>
   </g>
   <g id="line2d_25">
    <path d="M 216.654545 97.44 
L 216.654545 126.24 
" clip-path="url(#pb43874eee1)" style="fill: none; stroke: #000000; stroke-width: 1.5; stroke-linecap: round"/>
   </g>
   <g id="line2d_26">
    <path d="M 200.945455 111.84 
L 232.363636 111.84 
" clip-path="url(#pb43874eee1)" style="fill: none; stroke: #000000; stroke-width: 1.5; stroke-linecap: round"/>
   </g>
   <g id="line2d_27">
    <path d="M 269.018182 145.44 
L 269.018182 174.24 
" clip-path="url(#pb43874eee1)" style="fill: none; stroke: #000000; stroke-width: 1.5; stroke-linecap: round"/>
   </g>
   <g id="line2d_28">
    <path d="M 253.309091 159.84 
L 284.727273 159.84 
" clip-path="url(#pb43874eee1)" style="fill: none; stroke: #000000; stroke-width: 1.5; stroke-linecap: round"/>
   </g>
   <g id="line2d_29">
    <path d="M 321.381818 193.44 
L 321.381818 222.24 
" clip-path="url(#pb43874eee1)" style="fill: none; stroke: #000000; stroke-width: 1.5; stroke-linecap: round"/>
   </g>
   <g id="line2d_30">
    <path d="M 305.672727 207.84 
L 337.090909 207.84 
" clip-path="url(#pb43874eee1)" style="fill: none; stroke: #000000; stroke-width: 1.5; stroke-linecap: round"/>
   </g>
   <g id="line2d_31">
    <path d="M 373.745455 241.44 
L 373.745455 270.24 
" clip-path="url(#pb43874eee1)" style="fill: none; stroke: #000000; stroke-width: 1.5; stroke-linecap: round"/>
   </g>
   <g id="line2d_32">
    <path d="M 358.036364 255.84 
L 389.454545 255.84 
" clip-path="url(#pb43874eee1)" style="fill: none; stroke: #000000; stroke-width: 1.5; stroke-linecap: round"/>
   </g>
   <g id="line2d_33">
    <path d="M 426.109091 289.44 
L 426.109091 318.24 
" clip-path="url(#pb43874eee1)" style="fill: none; stroke: #000000; stroke-width: 1.5; stroke-linecap: round"/>
   </g>
   <g id="line2d_34">
    <path d="M 410.4 303.84 
L 441.818182 303.84 
" clip-path="url(#pb43874eee1)" style="fill: none; stroke: #000000; stroke-width: 1.5; stroke-linecap: round"/>
   </g>
   <g id="line2d_35">
    <path d="M 478.472727 337.44 
L 478.472727 366.24 
" clip-path="url(#pb43874eee1)" style="fill: none; stroke: #000000; stroke-width: 1.5; stroke-linecap: round"/>
   </g>
   <g id="line2d_36">
    <path d="M 462.763636 351.84 
L 494.181818 351.84 
" clip-path="url(#pb43874eee1)" style="fill: none; stroke: #000000; stroke-width: 1.5; stroke-linecap: round"/>
   </g>
   <g id="line2d_37">
    <path d="M 530.836364 385.44 
L 530.836364 414.24 
" clip-path="url(#pb43874eee1)" style="fill: none; stroke: #000000; stroke-width: 1.5; stroke-linecap: round"/>
   </g>
   <g id="line2d_38">
    <path d="M 515.127273 399.84 
L 546.545455 399.84 
" clip-path="url(#pb43874eee1)" style="fill: none; stroke: #000000; stroke-width: 1.5; stroke-linecap: round"/>
   </g>
   <g id="line2d_39">
    <path d="M 583.2 49.44 
L 583.2 78.24 
" clip-path="url(#pb43874eee1)" style="fill: none; stroke: #000000; stroke-width: 1.5; stroke-linecap: round"/>
   </g>
   <g id="line2d_40">
    <path d="M 567.490909 63.84 
L 598.909091 63.84 
" clip-path="url(#pb43874eee1)" style="fill: none; stroke: #000000; stroke-width: 1.5; stroke-linecap: round"/>
   </g>
   <g id="patch_52">
    <path d="M 626.4 45.84 
L 644.727273 45.84 
Q 655.2 45.84 655.2 55.44 
L 655.2 72.24 
Q 655.2 81.84 644.727273 81.84 
L 626.4 81.84 
Q 615.927273 81.84 615.927273 72.24 
L 615.927273 55.44 
Q 615.927273 45.84 626.4 45.84 
z
" clip-path="url(#pb43874eee1)" style="fill: #ffffff; stroke: #000000; stroke-width: 3; stroke-linejoin: miter"/>
   </g>
   <g id="patch_53">
    <path d="M 626.4 93.84 
L 644.727273 93.84 
Q 655.2 93.84 655.2 103.44 
L 655.2 120.24 
Q 655.2 129.84 644.727273 129.84 
L 626.4 129.84 
Q 615.927273 129.84 615.927273 120.24 
L 615.927273 103.44 
Q 615.927273 93.84 626.4 93.84 
z
" clip-path="url(#pb43874eee1)" style="fill: #ffffff; stroke: #000000; stroke-width: 3; stroke-linejoin: miter"/>
   </g>
   <g id="patch_54">
    <path d="M 626.4 141.84 
L 644.727273 141.84 
Q 655.2 141.84 655.2 151.44 
L 655.2 168.24 
Q 655.2 177.84 644.727273 177.84 
L 626.4 177.84 
Q 615.927273 177.84 615.927273 168.24 
L 615.927273 151.44 
Q 615.927273 141.84 626.4 141.84 
z
" clip-path="url(#pb43874eee1)" style="fill: #ffffff; stroke: #000000; stroke-width: 3; stroke-linejoin: miter"/>
   </g>
   <g id="patch_55">
    <path d="M 626.4 189.84 
L 644.727273 189.84 
Q 655.2 189.84 655.2 199.44 
L 655.2 216.24 
Q 655.2 225.84 644.727273 225.84 
L 626.4 225.84 
Q 615.927273 225.84 615.927273 216.24 
L 615.927273 199.44 
Q 615.927273 189.84 626.4 189.84 
z
" clip-path="url(#pb43874eee1)" style="fill: #ffffff; stroke: #000000; stroke-width: 3; stroke-linejoin: miter"/>
   </g>
   <g id="patch_56">
    <path d="M 626.4 237.84 
L 644.727273 237.84 
Q 655.2 237.84 655.2 247.44 
L 655.2 264.24 
Q 655.2 273.84 644.727273 273.84 
L 626.4 273.84 
Q 615.927273 273.84 615.927273 264.24 
L 615.927273 247.44 
Q 615.927273 237.84 626.4 237.84 
z
" clip-path="url(#pb43874eee1)" style="fill: #ffffff; stroke: #000000; stroke-width: 3; stroke-linejoin: miter"/>
   </g>
   <g id="patch_57">
    <path d="M 626.4 285.84 
L 644.727273 285.84 
Q 655.2 285.84 655.2 295.44 
L 655.2 312.24 
Q 655.2 321.84 644.727273 321.84 
L 626.4 321.84 
Q 615.927273 321.84 615.927273 312.24 
L 615.927273 295.44 
Q 615.927273 285.84 626.4 285.84 
z
" clip-path="url(#pb43874eee1)" style="fill: #ffffff; stroke: #000000; stroke-width: 3; stroke-linejoin: miter"/>
   </g>
   <g id="patch_58">
    <path d="M 626.4 333.84 
L 644.727273 333.84 
Q 655.2 333.84 655.2 343.44 
L 655.2 360.24 
Q 655.2 369.84 644.727273 369.84 
L 626.4 369.84 
Q 615.927273 369.84 615.927273 360.24 
L 615.927273 343.44 
Q 615.927273 333.84 626.4 333.84 
z
" clip-path="url(#pb43874eee1)" style="fill: #ffffff; stroke: #000000; stroke-width: 3; stroke-linejoin: miter"/>
   </g>
   <g id="patch_59">
    <path d="M 626.4 381.84 
L 644.727273 381.84 
Q 655.2 381.84 655.2 391.44 
L 655.2 408.24 
Q 655.2 417.84 644.727273 417.84 
L 626.4 417.84 
Q 615.927273 417.84 615.927273 408.24 
L 615.927273 391.44 
Q 615.927273 381.84 626.4 381.84 
z
" clip-path="url(#pb43874eee1)" style="fill: #ffffff; stroke: #000000; stroke-width: 3; stroke-linejoin: miter"/>
   </g>
   <g id="line2d_41">
    <path d="M 687.927273 145.44 
L 687.927273 174.24 
" clip-path="url(#pb43874eee1)" style="fill: none; stroke: #000000; stroke-width: 1.5; stroke-linecap: round"/>
   </g>
   <g id="line2d_42">
    <path d="M 672.218182 159.84 
L 703.636364 159.84 
" clip-path="url(#pb43874eee1)" style="fill: none; stroke: #000000; stroke-width: 1.5; stroke-linecap: round"/>
   </g>
   <g id="line2d_43">
    <path d="M 740.290909 193.44 
L 740.290909 222.24 
" clip-path="url(#pb43874eee1)" style="fill: none; stroke: #000000; stroke-width: 1.5; stroke-linecap: round"/>
   </g>
   <g id="line2d_44">
    <path d="M 724.581818 207.84 
L 756 207.84 
" clip-path="url(#pb43874eee1)" style="fill: none; stroke: #000000; stroke-width: 1.5; stroke-linecap: round"/>
   </g>
   <g id="line2d_45">
    <path d="M 792.654545 241.44 
L 792.654545 270.24 
" clip-path="url(#pb43874eee1)" style="fill: none; stroke: #000000; stroke-width: 1.5; stroke-linecap: round"/>
   </g>
   <g id="line2d_46">
    <path d="M 776.945455 255.84 
L 808.363636 255.84 
" clip-path="url(#pb43874eee1)" style="fill: none; stroke: #000000; stroke-width: 1.5; stroke-linecap: round"/>
   </g>
   <g id="line2d_47">
    <path d="M 845.018182 289.44 
L 845.018182 318.24 
" clip-path="url(#pb43874eee1)" style="fill: none; stroke: #000000; stroke-width: 1.5; stroke-linecap: round"/>
   </g>
   <g id="line2d_48">
    <path d="M 829.309091 303.84 
L 860.727273 303.84 
" clip-path="url(#pb43874eee1)" style="fill: none; stroke: #000000; stroke-width: 1.5; stroke-linecap: round"/>
   </g>
   <g id="line2d_49">
    <path d="M 897.381818 337.44 
L 897.381818 366.24 
" clip-path="url(#pb43874eee1)" style="fill: none; stroke: #000000; stroke-width: 1.5; stroke-linecap: round"/>
   </g>
   <g id="line2d_50">
    <path d="M 881.672727 351.84 
L 913.090909 351.84 
" clip-path="url(#pb43874eee1)" style="fill: none; stroke: #000000; stroke-width: 1.5; stroke-linecap: round"/>
   </g>
   <g id="line2d_51">
    <path d="M 949.745455 385.44 
L 949.745455 414.24 
" clip-path="url(#pb43874eee1)" style="fill: none; stroke: #000000; stroke-width: 1.5; stroke-linecap: round"/>
   </g>
   <g id="line2d_52">
    <path d="M 934.036364 399.84 
L 965.454545 399.84 
" clip-path="url(#pb43874eee1)" style="fill: none; stroke: #000000; stroke-width: 1.5; stroke-linecap: round"/>
   </g>
   <g id="line2d_53">
    <path d="M 1002.109091 49.44 
L 1002.109091 78.24 
" clip-path="url(#pb43874eee1)" style="fill: none; stroke: #000000; stroke-width: 1.5; stroke-linecap: round"/>
   </g>
   <g id="line2d_54">
    <path d="M 986.4 63.84 
L 1017.818182 63.84 
" clip-path="url(#pb43874eee1)" style="fill: none; stroke: #000000; stroke-width: 1.5; stroke-linecap: round"/>
   </g>
   <g id="line2d_55">
    <path d="M 1054.472727 97.44 
L 1054.472727 126.24 
" clip-path="url(#pb43874eee1)" style="fill: none; stroke: #000000; stroke-width: 1.5; stroke-linecap: round"/>
   </g>
   <g id="line2d_56">
    <path d="M 1038.763636 111.84 
L 1070.181818 111.84 
" clip-path="url(#pb43874eee1)" style="fill: none; stroke: #000000; stroke-width: 1.5; stroke-linecap: round"/>
   </g>
   <g id="patch_60">
    <path d="M 1116.515832 50.851923 
L 1110.622517 55.482385 
L 1112.704822 56.627652 
L 1100.923004 74.627652 
L 1100.967905 74.652348 
L 1112.749723 56.652348 
L 1114.832028 57.797615 
z
" clip-path="url(#pb43874eee1)" style="fill: #ffffff; stroke: #000000; stroke-width: 3; stroke-linejoin: miter"/>
   </g>
   <g id="text_9">
    <!-- RY -->
    <g transform="translate(102.325241 67.459219) scale(0.14 -0.14)">
     <defs>
      <path id="ArialMT-52" d="M 503 0 
L 503 4581 
L 2534 4581 
Q 3147 4581 3465 4457 
Q 3784 4334 3975 4021 
Q 4166 3709 4166 3331 
Q 4166 2844 3850 2509 
Q 3534 2175 2875 2084 
Q 3116 1969 3241 1856 
Q 3506 1613 3744 1247 
L 4541 0 
L 3778 0 
L 3172 953 
Q 2906 1366 2734 1584 
Q 2563 1803 2427 1890 
Q 2291 1978 2150 2013 
Q 2047 2034 1813 2034 
L 1109 2034 
L 1109 0 
L 503 0 
z
M 1109 2559 
L 2413 2559 
Q 2828 2559 3062 2645 
Q 3297 2731 3419 2920 
Q 3541 3109 3541 3331 
Q 3541 3656 3305 3865 
Q 3069 4075 2559 4075 
L 1109 4075 
L 1109 2559 
z
" transform="scale(0.015625)"/>
      <path id="ArialMT-59" d="M 1784 0 
L 1784 1941 
L 19 4581 
L 756 4581 
L 1659 3200 
Q 1909 2813 2125 2425 
Q 2331 2784 2625 3234 
L 3513 4581 
L 4219 4581 
L 2391 1941 
L 2391 0 
L 1784 0 
z
" transform="scale(0.015625)"/>
     </defs>
     <use xlink:href="#ArialMT-52"/>
     <use xlink:href="#ArialMT-59" transform="translate(70.466797 0)"/>
    </g>
   </g>
   <g id="text_10">
    <!-- RY -->
    <g transform="translate(102.325241 115.459219) scale(0.14 -0.14)">
     <use xlink:href="#ArialMT-52"/>
     <use xlink:href="#ArialMT-59" transform="translate(70.466797 0)"/>
    </g>
   </g>
   <g id="text_11">
    <!-- RY -->
    <g transform="translate(102.325241 163.459219) scale(0.14 -0.14)">
     <use xlink:href="#ArialMT-52"/>
     <use xlink:href="#ArialMT-59" transform="translate(70.466797 0)"/>
    </g>
   </g>
   <g id="text_12">
    <!-- RY -->
    <g transform="translate(102.325241 211.459219) scale(0.14 -0.14)">
     <use xlink:href="#ArialMT-52"/>
     <use xlink:href="#ArialMT-59" transform="translate(70.466797 0)"/>
    </g>
   </g>
   <g id="text_13">
    <!-- RY -->
    <g transform="translate(102.325241 259.459219) scale(0.14 -0.14)">
     <use xlink:href="#ArialMT-52"/>
     <use xlink:href="#ArialMT-59" transform="translate(70.466797 0)"/>
    </g>
   </g>
   <g id="text_14">
    <!-- RY -->
    <g transform="translate(102.325241 307.459219) scale(0.14 -0.14)">
     <use xlink:href="#ArialMT-52"/>
     <use xlink:href="#ArialMT-59" transform="translate(70.466797 0)"/>
    </g>
   </g>
   <g id="text_15">
    <!-- RY -->
    <g transform="translate(102.325241 355.459219) scale(0.14 -0.14)">
     <use xlink:href="#ArialMT-52"/>
     <use xlink:href="#ArialMT-59" transform="translate(70.466797 0)"/>
    </g>
   </g>
   <g id="text_16">
    <!-- RY -->
    <g transform="translate(102.325241 403.459219) scale(0.14 -0.14)">
     <use xlink:href="#ArialMT-52"/>
     <use xlink:href="#ArialMT-59" transform="translate(70.466797 0)"/>
    </g>
   </g>
   <g id="text_17">
    <!-- Rot -->
    <g transform="translate(153.398253 67.459219) scale(0.14 -0.14)">
     <defs>
      <path id="ArialMT-6f" d="M 213 1659 
Q 213 2581 725 3025 
Q 1153 3394 1769 3394 
Q 2453 3394 2887 2945 
Q 3322 2497 3322 1706 
Q 3322 1066 3130 698 
Q 2938 331 2570 128 
Q 2203 -75 1769 -75 
Q 1072 -75 642 372 
Q 213 819 213 1659 
z
M 791 1659 
Q 791 1022 1069 705 
Q 1347 388 1769 388 
Q 2188 388 2466 706 
Q 2744 1025 2744 1678 
Q 2744 2294 2464 2611 
Q 2184 2928 1769 2928 
Q 1347 2928 1069 2612 
Q 791 2297 791 1659 
z
" transform="scale(0.015625)"/>
      <path id="ArialMT-74" d="M 1650 503 
L 1731 6 
Q 1494 -44 1306 -44 
Q 1000 -44 831 53 
Q 663 150 594 308 
Q 525 466 525 972 
L 525 2881 
L 113 2881 
L 113 3319 
L 525 3319 
L 525 4141 
L 1084 4478 
L 1084 3319 
L 1650 3319 
L 1650 2881 
L 1084 2881 
L 1084 941 
Q 1084 700 1114 631 
Q 1144 563 1211 522 
Q 1278 481 1403 481 
Q 1497 481 1650 503 
z
" transform="scale(0.015625)"/>
     </defs>
     <use xlink:href="#ArialMT-52"/>
     <use xlink:href="#ArialMT-6f" transform="translate(72.216797 0)"/>
     <use xlink:href="#ArialMT-74" transform="translate(127.832031 0)"/>
    </g>
   </g>
   <g id="text_18">
    <!-- Rot -->
    <g transform="translate(153.398253 115.459219) scale(0.14 -0.14)">
     <use xlink:href="#ArialMT-52"/>
     <use xlink:href="#ArialMT-6f" transform="translate(72.216797 0)"/>
     <use xlink:href="#ArialMT-74" transform="translate(127.832031 0)"/>
    </g>
   </g>
   <g id="text_19">
    <!-- Rot -->
    <g transform="translate(153.398253 163.459219) scale(0.14 -0.14)">
     <use xlink:href="#ArialMT-52"/>
     <use xlink:href="#ArialMT-6f" transform="translate(72.216797 0)"/>
     <use xlink:href="#ArialMT-74" transform="translate(127.832031 0)"/>
    </g>
   </g>
   <g id="text_20">
    <!-- Rot -->
    <g transform="translate(153.398253 211.459219) scale(0.14 -0.14)">
     <use xlink:href="#ArialMT-52"/>
     <use xlink:href="#ArialMT-6f" transform="translate(72.216797 0)"/>
     <use xlink:href="#ArialMT-74" transform="translate(127.832031 0)"/>
    </g>
   </g>
   <g id="text_21">
    <!-- Rot -->
    <g transform="translate(153.398253 259.459219) scale(0.14 -0.14)">
     <use xlink:href="#ArialMT-52"/>
     <use xlink:href="#ArialMT-6f" transform="translate(72.216797 0)"/>
     <use xlink:href="#ArialMT-74" transform="translate(127.832031 0)"/>
    </g>
   </g>
   <g id="text_22">
    <!-- Rot -->
    <g transform="translate(153.398253 307.459219) scale(0.14 -0.14)">
     <use xlink:href="#ArialMT-52"/>
     <use xlink:href="#ArialMT-6f" transform="translate(72.216797 0)"/>
     <use xlink:href="#ArialMT-74" transform="translate(127.832031 0)"/>
    </g>
   </g>
   <g id="text_23">
    <!-- Rot -->
    <g transform="translate(153.398253 355.459219) scale(0.14 -0.14)">
     <use xlink:href="#ArialMT-52"/>
     <use xlink:href="#ArialMT-6f" transform="translate(72.216797 0)"/>
     <use xlink:href="#ArialMT-74" transform="translate(127.832031 0)"/>
    </g>
   </g>
   <g id="text_24">
    <!-- Rot -->
    <g transform="translate(153.398253 403.459219) scale(0.14 -0.14)">
     <use xlink:href="#ArialMT-52"/>
     <use xlink:href="#ArialMT-6f" transform="translate(72.216797 0)"/>
     <use xlink:href="#ArialMT-74" transform="translate(127.832031 0)"/>
    </g>
   </g>
   <g id="text_25">
    <!-- Rot -->
    <g transform="translate(624.67098 67.459219) scale(0.14 -0.14)">
     <use xlink:href="#ArialMT-52"/>
     <use xlink:href="#ArialMT-6f" transform="translate(72.216797 0)"/>
     <use xlink:href="#ArialMT-74" transform="translate(127.832031 0)"/>
    </g>
   </g>
   <g id="text_26">
    <!-- Rot -->
    <g transform="translate(624.67098 115.459219) scale(0.14 -0.14)">
     <use xlink:href="#ArialMT-52"/>
     <use xlink:href="#ArialMT-6f" transform="translate(72.216797 0)"/>
     <use xlink:href="#ArialMT-74" transform="translate(127.832031 0)"/>
    </g>
   </g>
   <g id="text_27">
    <!-- Rot -->
    <g transform="translate(624.67098 163.459219) scale(0.14 -0.14)">
     <use xlink:href="#ArialMT-52"/>
     <use xlink:href="#ArialMT-6f" transform="translate(72.216797 0)"/>
     <use xlink:href="#ArialMT-74" transform="translate(127.832031 0)"/>
    </g>
   </g>
   <g id="text_28">
    <!-- Rot -->
    <g transform="translate(624.67098 211.459219) scale(0.14 -0.14)">
     <use xlink:href="#ArialMT-52"/>
     <use xlink:href="#ArialMT-6f" transform="translate(72.216797 0)"/>
     <use xlink:href="#ArialMT-74" transform="translate(127.832031 0)"/>
    </g>
   </g>
   <g id="text_29">
    <!-- Rot -->
    <g transform="translate(624.67098 259.459219) scale(0.14 -0.14)">
     <use xlink:href="#ArialMT-52"/>
     <use xlink:href="#ArialMT-6f" transform="translate(72.216797 0)"/>
     <use xlink:href="#ArialMT-74" transform="translate(127.832031 0)"/>
    </g>
   </g>
   <g id="text_30">
    <!-- Rot -->
    <g transform="translate(624.67098 307.459219) scale(0.14 -0.14)">
     <use xlink:href="#ArialMT-52"/>
     <use xlink:href="#ArialMT-6f" transform="translate(72.216797 0)"/>
     <use xlink:href="#ArialMT-74" transform="translate(127.832031 0)"/>
    </g>
   </g>
   <g id="text_31">
    <!-- Rot -->
    <g transform="translate(624.67098 355.459219) scale(0.14 -0.14)">
     <use xlink:href="#ArialMT-52"/>
     <use xlink:href="#ArialMT-6f" transform="translate(72.216797 0)"/>
     <use xlink:href="#ArialMT-74" transform="translate(127.832031 0)"/>
    </g>
   </g>
   <g id="text_32">
    <!-- Rot -->
    <g transform="translate(624.67098 403.459219) scale(0.14 -0.14)">
     <use xlink:href="#ArialMT-52"/>
     <use xlink:href="#ArialMT-6f" transform="translate(72.216797 0)"/>
     <use xlink:href="#ArialMT-74" transform="translate(127.832031 0)"/>
    </g>
   </g>
  </g>
  <g id="text_33">
   <!-- VQC Circuit: AngleEmbedding + StronglyEntanglingLayers (8 qubits, 2 layers, 48 parameters) -->
   <g style="fill: #262626" transform="translate(316.876875 15.935625) scale(0.12 -0.12)">
    <defs>
     <path id="Arial-BoldMT-56" d="M 1634 0 
L -3 4581 
L 1000 4581 
L 2159 1191 
L 3281 4581 
L 4263 4581 
L 2622 0 
L 1634 0 
z
" transform="scale(0.015625)"/>
     <path id="Arial-BoldMT-51" d="M 4153 581 
Q 4494 338 4894 194 
L 4553 -459 
Q 4344 -397 4144 -288 
Q 4100 -266 3528 119 
Q 3078 -78 2531 -78 
Q 1475 -78 876 544 
Q 278 1166 278 2291 
Q 278 3413 878 4036 
Q 1478 4659 2506 4659 
Q 3525 4659 4122 4036 
Q 4719 3413 4719 2291 
Q 4719 1697 4553 1247 
Q 4428 903 4153 581 
z
M 3409 1103 
Q 3588 1313 3677 1609 
Q 3766 1906 3766 2291 
Q 3766 3084 3416 3476 
Q 3066 3869 2500 3869 
Q 1934 3869 1582 3475 
Q 1231 3081 1231 2291 
Q 1231 1488 1582 1089 
Q 1934 691 2472 691 
Q 2672 691 2850 756 
Q 2569 941 2278 1044 
L 2538 1572 
Q 2994 1416 3409 1103 
z
" transform="scale(0.015625)"/>
     <path id="Arial-BoldMT-43" d="M 3397 1684 
L 4294 1400 
Q 4088 650 3608 286 
Q 3128 -78 2391 -78 
Q 1478 -78 890 545 
Q 303 1169 303 2250 
Q 303 3394 893 4026 
Q 1484 4659 2447 4659 
Q 3288 4659 3813 4163 
Q 4125 3869 4281 3319 
L 3366 3100 
Q 3284 3456 3026 3662 
Q 2769 3869 2400 3869 
Q 1891 3869 1573 3503 
Q 1256 3138 1256 2319 
Q 1256 1450 1568 1081 
Q 1881 713 2381 713 
Q 2750 713 3015 947 
Q 3281 1181 3397 1684 
z
" transform="scale(0.015625)"/>
     <path id="Arial-BoldMT-20" transform="scale(0.015625)"/>
     <path id="Arial-BoldMT-69" d="M 459 3769 
L 459 4581 
L 1338 4581 
L 1338 3769 
L 459 3769 
z
M 459 0 
L 459 3319 
L 1338 3319 
L 1338 0 
L 459 0 
z
" transform="scale(0.015625)"/>
     <path id="Arial-BoldMT-72" d="M 1300 0 
L 422 0 
L 422 3319 
L 1238 3319 
L 1238 2847 
Q 1447 3181 1614 3287 
Q 1781 3394 1994 3394 
Q 2294 3394 2572 3228 
L 2300 2463 
Q 2078 2606 1888 2606 
Q 1703 2606 1575 2504 
Q 1447 2403 1373 2137 
Q 1300 1872 1300 1025 
L 1300 0 
z
" transform="scale(0.015625)"/>
     <path id="Arial-BoldMT-63" d="M 3353 2338 
L 2488 2181 
Q 2444 2441 2289 2572 
Q 2134 2703 1888 2703 
Q 1559 2703 1364 2476 
Q 1169 2250 1169 1719 
Q 1169 1128 1367 884 
Q 1566 641 1900 641 
Q 2150 641 2309 783 
Q 2469 925 2534 1272 
L 3397 1125 
Q 3263 531 2881 228 
Q 2500 -75 1859 -75 
Q 1131 -75 698 384 
Q 266 844 266 1656 
Q 266 2478 700 2936 
Q 1134 3394 1875 3394 
Q 2481 3394 2839 3133 
Q 3197 2872 3353 2338 
z
" transform="scale(0.015625)"/>
     <path id="Arial-BoldMT-75" d="M 2644 0 
L 2644 497 
Q 2463 231 2167 78 
Q 1872 -75 1544 -75 
Q 1209 -75 943 72 
Q 678 219 559 484 
Q 441 750 441 1219 
L 441 3319 
L 1319 3319 
L 1319 1794 
Q 1319 1094 1367 936 
Q 1416 778 1544 686 
Q 1672 594 1869 594 
Q 2094 594 2272 717 
Q 2450 841 2515 1023 
Q 2581 1206 2581 1919 
L 2581 3319 
L 3459 3319 
L 3459 0 
L 2644 0 
z
" transform="scale(0.015625)"/>
     <path id="Arial-BoldMT-74" d="M 1981 3319 
L 1981 2619 
L 1381 2619 
L 1381 1281 
Q 1381 875 1398 808 
Q 1416 741 1477 697 
Q 1538 653 1625 653 
Q 1747 653 1978 738 
L 2053 56 
Q 1747 -75 1359 -75 
Q 1122 -75 931 4 
Q 741 84 652 211 
Q 563 338 528 553 
Q 500 706 500 1172 
L 500 2619 
L 97 2619 
L 97 3319 
L 500 3319 
L 500 3978 
L 1381 4491 
L 1381 3319 
L 1981 3319 
z
" transform="scale(0.015625)"/>
     <path id="Arial-BoldMT-3a" d="M 628 2441 
L 628 3319 
L 1506 3319 
L 1506 2441 
L 628 2441 
z
M 628 0 
L 628 878 
L 1506 878 
L 1506 0 
L 628 0 
z
" transform="scale(0.015625)"/>
     <path id="Arial-BoldMT-41" d="M 4597 0 
L 3591 0 
L 3191 1041 
L 1359 1041 
L 981 0 
L 0 0 
L 1784 4581 
L 2763 4581 
L 4597 0 
z
M 2894 1813 
L 2263 3513 
L 1644 1813 
L 2894 1813 
z
" transform="scale(0.015625)"/>
     <path id="Arial-BoldMT-6e" d="M 3478 0 
L 2600 0 
L 2600 1694 
Q 2600 2231 2544 2389 
Q 2488 2547 2361 2634 
Q 2234 2722 2056 2722 
Q 1828 2722 1647 2597 
Q 1466 2472 1398 2265 
Q 1331 2059 1331 1503 
L 1331 0 
L 453 0 
L 453 3319 
L 1269 3319 
L 1269 2831 
Q 1703 3394 2363 3394 
Q 2653 3394 2893 3289 
Q 3134 3184 3257 3021 
Q 3381 2859 3429 2653 
Q 3478 2447 3478 2063 
L 3478 0 
z
" transform="scale(0.015625)"/>
     <path id="Arial-BoldMT-67" d="M 378 -219 
L 1381 -341 
Q 1406 -516 1497 -581 
Q 1622 -675 1891 -675 
Q 2234 -675 2406 -572 
Q 2522 -503 2581 -350 
Q 2622 -241 2622 53 
L 2622 538 
Q 2228 0 1628 0 
Q 959 0 569 566 
Q 263 1013 263 1678 
Q 263 2513 664 2953 
Q 1066 3394 1663 3394 
Q 2278 3394 2678 2853 
L 2678 3319 
L 3500 3319 
L 3500 341 
Q 3500 -247 3403 -537 
Q 3306 -828 3131 -993 
Q 2956 -1159 2664 -1253 
Q 2372 -1347 1925 -1347 
Q 1081 -1347 728 -1058 
Q 375 -769 375 -325 
Q 375 -281 378 -219 
z
M 1163 1728 
Q 1163 1200 1367 954 
Q 1572 709 1872 709 
Q 2194 709 2416 961 
Q 2638 1213 2638 1706 
Q 2638 2222 2425 2472 
Q 2213 2722 1888 2722 
Q 1572 2722 1367 2476 
Q 1163 2231 1163 1728 
z
" transform="scale(0.015625)"/>
     <path id="Arial-BoldMT-6c" d="M 459 0 
L 459 4581 
L 1338 4581 
L 1338 0 
L 459 0 
z
" transform="scale(0.015625)"/>
     <path id="Arial-BoldMT-65" d="M 2381 1056 
L 3256 909 
Q 3088 428 2723 176 
Q 2359 -75 1813 -75 
Q 947 -75 531 491 
Q 203 944 203 1634 
Q 203 2459 634 2926 
Q 1066 3394 1725 3394 
Q 2466 3394 2894 2905 
Q 3322 2416 3303 1406 
L 1103 1406 
Q 1113 1016 1316 798 
Q 1519 581 1822 581 
Q 2028 581 2168 693 
Q 2309 806 2381 1056 
z
M 2431 1944 
Q 2422 2325 2234 2523 
Q 2047 2722 1778 2722 
Q 1491 2722 1303 2513 
Q 1116 2303 1119 1944 
L 2431 1944 
z
" transform="scale(0.015625)"/>
     <path id="Arial-BoldMT-45" d="M 466 0 
L 466 4581 
L 3863 4581 
L 3863 3806 
L 1391 3806 
L 1391 2791 
L 3691 2791 
L 3691 2019 
L 1391 2019 
L 1391 772 
L 3950 772 
L 3950 0 
L 466 0 
z
" transform="scale(0.015625)"/>
     <path id="Arial-BoldMT-6d" d="M 394 3319 
L 1203 3319 
L 1203 2866 
Q 1638 3394 2238 3394 
Q 2556 3394 2790 3262 
Q 3025 3131 3175 2866 
Q 3394 3131 3647 3262 
Q 3900 3394 4188 3394 
Q 4553 3394 4806 3245 
Q 5059 3097 5184 2809 
Q 5275 2597 5275 2122 
L 5275 0 
L 4397 0 
L 4397 1897 
Q 4397 2391 4306 2534 
Q 4184 2722 3931 2722 
Q 3747 2722 3584 2609 
Q 3422 2497 3350 2280 
Q 3278 2063 3278 1594 
L 3278 0 
L 2400 0 
L 2400 1819 
Q 2400 2303 2353 2443 
Q 2306 2584 2207 2653 
Q 2109 2722 1941 2722 
Q 1738 2722 1575 2612 
Q 1413 2503 1342 2297 
Q 1272 2091 1272 1613 
L 1272 0 
L 394 0 
L 394 3319 
z
" transform="scale(0.015625)"/>
     <path id="Arial-BoldMT-62" d="M 422 0 
L 422 4581 
L 1300 4581 
L 1300 2931 
Q 1706 3394 2263 3394 
Q 2869 3394 3266 2955 
Q 3663 2516 3663 1694 
Q 3663 844 3258 384 
Q 2853 -75 2275 -75 
Q 1991 -75 1714 67 
Q 1438 209 1238 488 
L 1238 0 
L 422 0 
z
M 1294 1731 
Q 1294 1216 1456 969 
Q 1684 619 2063 619 
Q 2353 619 2558 867 
Q 2763 1116 2763 1650 
Q 2763 2219 2556 2470 
Q 2350 2722 2028 2722 
Q 1713 2722 1503 2476 
Q 1294 2231 1294 1731 
z
" transform="scale(0.015625)"/>
     <path id="Arial-BoldMT-64" d="M 3503 0 
L 2688 0 
L 2688 488 
Q 2484 203 2207 64 
Q 1931 -75 1650 -75 
Q 1078 -75 670 386 
Q 263 847 263 1672 
Q 263 2516 659 2955 
Q 1056 3394 1663 3394 
Q 2219 3394 2625 2931 
L 2625 4581 
L 3503 4581 
L 3503 0 
z
M 1159 1731 
Q 1159 1200 1306 963 
Q 1519 619 1900 619 
Q 2203 619 2415 876 
Q 2628 1134 2628 1647 
Q 2628 2219 2422 2470 
Q 2216 2722 1894 2722 
Q 1581 2722 1370 2473 
Q 1159 2225 1159 1731 
z
" transform="scale(0.015625)"/>
     <path id="Arial-BoldMT-2b" d="M 1466 659 
L 1466 1850 
L 266 1850 
L 266 2672 
L 1466 2672 
L 1466 3863 
L 2266 3863 
L 2266 2672 
L 3469 2672 
L 3469 1850 
L 2266 1850 
L 2266 659 
L 1466 659 
z
" transform="scale(0.015625)"/>
     <path id="Arial-BoldMT-53" d="M 231 1491 
L 1131 1578 
Q 1213 1125 1461 912 
Q 1709 700 2131 700 
Q 2578 700 2804 889 
Q 3031 1078 3031 1331 
Q 3031 1494 2936 1608 
Q 2841 1722 2603 1806 
Q 2441 1863 1863 2006 
Q 1119 2191 819 2459 
Q 397 2838 397 3381 
Q 397 3731 595 4036 
Q 794 4341 1167 4500 
Q 1541 4659 2069 4659 
Q 2931 4659 3367 4281 
Q 3803 3903 3825 3272 
L 2900 3231 
Q 2841 3584 2645 3739 
Q 2450 3894 2059 3894 
Q 1656 3894 1428 3728 
Q 1281 3622 1281 3444 
Q 1281 3281 1419 3166 
Q 1594 3019 2269 2859 
Q 2944 2700 3267 2529 
Q 3591 2359 3773 2064 
Q 3956 1769 3956 1334 
Q 3956 941 3737 597 
Q 3519 253 3119 86 
Q 2719 -81 2122 -81 
Q 1253 -81 787 320 
Q 322 722 231 1491 
z
" transform="scale(0.015625)"/>
     <path id="Arial-BoldMT-6f" d="M 256 1706 
Q 256 2144 472 2553 
Q 688 2963 1083 3178 
Q 1478 3394 1966 3394 
Q 2719 3394 3200 2905 
Q 3681 2416 3681 1669 
Q 3681 916 3195 420 
Q 2709 -75 1972 -75 
Q 1516 -75 1102 131 
Q 688 338 472 736 
Q 256 1134 256 1706 
z
M 1156 1659 
Q 1156 1166 1390 903 
Q 1625 641 1969 641 
Q 2313 641 2545 903 
Q 2778 1166 2778 1666 
Q 2778 2153 2545 2415 
Q 2313 2678 1969 2678 
Q 1625 2678 1390 2415 
Q 1156 2153 1156 1659 
z
" transform="scale(0.015625)"/>
     <path id="Arial-BoldMT-79" d="M 44 3319 
L 978 3319 
L 1772 963 
L 2547 3319 
L 3456 3319 
L 2284 125 
L 2075 -453 
Q 1959 -744 1854 -897 
Q 1750 -1050 1614 -1145 
Q 1478 -1241 1279 -1294 
Q 1081 -1347 831 -1347 
Q 578 -1347 334 -1294 
L 256 -606 
Q 463 -647 628 -647 
Q 934 -647 1081 -467 
Q 1228 -288 1306 -9 
L 44 3319 
z
" transform="scale(0.015625)"/>
     <path id="Arial-BoldMT-61" d="M 1116 2306 
L 319 2450 
Q 453 2931 781 3162 
Q 1109 3394 1756 3394 
Q 2344 3394 2631 3255 
Q 2919 3116 3036 2902 
Q 3153 2688 3153 2116 
L 3144 1091 
Q 3144 653 3186 445 
Q 3228 238 3344 0 
L 2475 0 
Q 2441 88 2391 259 
Q 2369 338 2359 363 
Q 2134 144 1878 34 
Q 1622 -75 1331 -75 
Q 819 -75 523 203 
Q 228 481 228 906 
Q 228 1188 362 1408 
Q 497 1628 739 1745 
Q 981 1863 1438 1950 
Q 2053 2066 2291 2166 
L 2291 2253 
Q 2291 2506 2166 2614 
Q 2041 2722 1694 2722 
Q 1459 2722 1328 2630 
Q 1197 2538 1116 2306 
z
M 2291 1594 
Q 2122 1538 1756 1459 
Q 1391 1381 1278 1306 
Q 1106 1184 1106 997 
Q 1106 813 1243 678 
Q 1381 544 1594 544 
Q 1831 544 2047 700 
Q 2206 819 2256 991 
Q 2291 1103 2291 1419 
L 2291 1594 
z
" transform="scale(0.015625)"/>
     <path id="Arial-BoldMT-4c" d="M 491 0 
L 491 4544 
L 1416 4544 
L 1416 772 
L 3716 772 
L 3716 0 
L 491 0 
z
" transform="scale(0.015625)"/>
     <path id="Arial-BoldMT-73" d="M 150 947 
L 1031 1081 
Q 1088 825 1259 692 
Q 1431 559 1741 559 
Q 2081 559 2253 684 
Q 2369 772 2369 919 
Q 2369 1019 2306 1084 
Q 2241 1147 2013 1200 
Q 950 1434 666 1628 
Q 272 1897 272 2375 
Q 272 2806 612 3100 
Q 953 3394 1669 3394 
Q 2350 3394 2681 3172 
Q 3013 2950 3138 2516 
L 2309 2363 
Q 2256 2556 2107 2659 
Q 1959 2763 1684 2763 
Q 1338 2763 1188 2666 
Q 1088 2597 1088 2488 
Q 1088 2394 1175 2328 
Q 1294 2241 1995 2081 
Q 2697 1922 2975 1691 
Q 3250 1456 3250 1038 
Q 3250 581 2869 253 
Q 2488 -75 1741 -75 
Q 1063 -75 667 200 
Q 272 475 150 947 
z
" transform="scale(0.015625)"/>
     <path id="Arial-BoldMT-28" d="M 1916 -1347 
L 1313 -1347 
Q 834 -625 584 153 
Q 334 931 334 1659 
Q 334 2563 644 3369 
Q 913 4069 1325 4659 
L 1925 4659 
Q 1497 3713 1336 3048 
Q 1175 2384 1175 1641 
Q 1175 1128 1270 590 
Q 1366 53 1531 -431 
Q 1641 -750 1916 -1347 
z
" transform="scale(0.015625)"/>
     <path id="Arial-BoldMT-38" d="M 1025 2472 
Q 684 2616 529 2867 
Q 375 3119 375 3419 
Q 375 3931 733 4265 
Q 1091 4600 1750 4600 
Q 2403 4600 2764 4265 
Q 3125 3931 3125 3419 
Q 3125 3100 2959 2851 
Q 2794 2603 2494 2472 
Q 2875 2319 3073 2025 
Q 3272 1731 3272 1347 
Q 3272 713 2867 316 
Q 2463 -81 1791 -81 
Q 1166 -81 750 247 
Q 259 634 259 1309 
Q 259 1681 443 1992 
Q 628 2303 1025 2472 
z
M 1206 3356 
Q 1206 3094 1354 2947 
Q 1503 2800 1750 2800 
Q 2000 2800 2150 2948 
Q 2300 3097 2300 3359 
Q 2300 3606 2151 3754 
Q 2003 3903 1759 3903 
Q 1506 3903 1356 3753 
Q 1206 3603 1206 3356 
z
M 1125 1394 
Q 1125 1031 1311 828 
Q 1497 625 1775 625 
Q 2047 625 2225 820 
Q 2403 1016 2403 1384 
Q 2403 1706 2222 1901 
Q 2041 2097 1763 2097 
Q 1441 2097 1283 1875 
Q 1125 1653 1125 1394 
z
" transform="scale(0.015625)"/>
     <path id="Arial-BoldMT-71" d="M 2628 -1263 
L 2628 406 
Q 2456 184 2200 54 
Q 1944 -75 1647 -75 
Q 1081 -75 716 350 
Q 284 847 284 1697 
Q 284 2497 689 2945 
Q 1094 3394 1694 3394 
Q 2025 3394 2267 3253 
Q 2509 3113 2697 2828 
L 2697 3319 
L 3506 3319 
L 3506 -1263 
L 2628 -1263 
z
M 2656 1700 
Q 2656 2209 2448 2457 
Q 2241 2706 1928 2706 
Q 1609 2706 1395 2453 
Q 1181 2200 1181 1650 
Q 1181 1103 1387 861 
Q 1594 619 1897 619 
Q 2200 619 2428 891 
Q 2656 1163 2656 1700 
z
" transform="scale(0.015625)"/>
     <path id="Arial-BoldMT-2c" d="M 438 878 
L 1316 878 
L 1316 250 
Q 1316 -131 1250 -351 
Q 1184 -572 1001 -747 
Q 819 -922 538 -1022 
L 366 -659 
Q 631 -572 743 -419 
Q 856 -266 863 0 
L 438 0 
L 438 878 
z
" transform="scale(0.015625)"/>
     <path id="Arial-BoldMT-32" d="M 3238 816 
L 3238 0 
L 159 0 
Q 209 463 459 877 
Q 709 1291 1447 1975 
Q 2041 2528 2175 2725 
Q 2356 2997 2356 3263 
Q 2356 3556 2198 3714 
Q 2041 3872 1763 3872 
Q 1488 3872 1325 3706 
Q 1163 3541 1138 3156 
L 263 3244 
Q 341 3969 753 4284 
Q 1166 4600 1784 4600 
Q 2463 4600 2850 4234 
Q 3238 3869 3238 3325 
Q 3238 3016 3127 2736 
Q 3016 2456 2775 2150 
Q 2616 1947 2200 1565 
Q 1784 1184 1673 1059 
Q 1563 934 1494 816 
L 3238 816 
z
" transform="scale(0.015625)"/>
     <path id="Arial-BoldMT-34" d="M 1994 0 
L 1994 922 
L 119 922 
L 119 1691 
L 2106 4600 
L 2844 4600 
L 2844 1694 
L 3413 1694 
L 3413 922 
L 2844 922 
L 2844 0 
L 1994 0 
z
M 1994 1694 
L 1994 3259 
L 941 1694 
L 1994 1694 
z
" transform="scale(0.015625)"/>
     <path id="Arial-BoldMT-70" d="M 434 3319 
L 1253 3319 
L 1253 2831 
Q 1413 3081 1684 3237 
Q 1956 3394 2288 3394 
Q 2866 3394 3269 2941 
Q 3672 2488 3672 1678 
Q 3672 847 3265 386 
Q 2859 -75 2281 -75 
Q 2006 -75 1782 34 
Q 1559 144 1313 409 
L 1313 -1263 
L 434 -1263 
L 434 3319 
z
M 1303 1716 
Q 1303 1156 1525 889 
Q 1747 622 2066 622 
Q 2372 622 2575 867 
Q 2778 1113 2778 1672 
Q 2778 2194 2568 2447 
Q 2359 2700 2050 2700 
Q 1728 2700 1515 2451 
Q 1303 2203 1303 1716 
z
" transform="scale(0.015625)"/>
     <path id="Arial-BoldMT-29" d="M 216 -1347 
Q 475 -791 581 -494 
Q 688 -197 778 190 
Q 869 578 912 926 
Q 956 1275 956 1641 
Q 956 2384 797 3048 
Q 638 3713 209 4659 
L 806 4659 
Q 1278 3988 1539 3234 
Q 1800 2481 1800 1706 
Q 1800 1053 1594 306 
Q 1359 -531 822 -1347 
L 216 -1347 
z
" transform="scale(0.015625)"/>
    </defs>
    <use xlink:href="#Arial-BoldMT-56"/>
    <use xlink:href="#Arial-BoldMT-51" transform="translate(66.699219 0)"/>
    <use xlink:href="#Arial-BoldMT-43" transform="translate(144.482422 0)"/>
    <use xlink:href="#Arial-BoldMT-20" transform="translate(216.699219 0)"/>
    <use xlink:href="#Arial-BoldMT-43" transform="translate(244.482422 0)"/>
    <use xlink:href="#Arial-BoldMT-69" transform="translate(316.699219 0)"/>
    <use xlink:href="#Arial-BoldMT-72" transform="translate(344.482422 0)"/>
    <use xlink:href="#Arial-BoldMT-63" transform="translate(383.398438 0)"/>
    <use xlink:href="#Arial-BoldMT-75" transform="translate(439.013672 0)"/>
    <use xlink:href="#Arial-BoldMT-69" transform="translate(500.097656 0)"/>
    <use xlink:href="#Arial-BoldMT-74" transform="translate(527.880859 0)"/>
    <use xlink:href="#Arial-BoldMT-3a" transform="translate(561.181641 0)"/>
    <use xlink:href="#Arial-BoldMT-20" transform="translate(594.482422 0)"/>
    <use xlink:href="#Arial-BoldMT-41" transform="translate(618.515625 0)"/>
    <use xlink:href="#Arial-BoldMT-6e" transform="translate(690.732422 0)"/>
    <use xlink:href="#Arial-BoldMT-67" transform="translate(751.816406 0)"/>
    <use xlink:href="#Arial-BoldMT-6c" transform="translate(812.900391 0)"/>
    <use xlink:href="#Arial-BoldMT-65" transform="translate(840.683594 0)"/>
    <use xlink:href="#Arial-BoldMT-45" transform="translate(896.298828 0)"/>
    <use xlink:href="#Arial-BoldMT-6d" transform="translate(962.998047 0)"/>
    <use xlink:href="#Arial-BoldMT-62" transform="translate(1051.914062 0)"/>
    <use xlink:href="#Arial-BoldMT-65" transform="translate(1112.998047 0)"/>
    <use xlink:href="#Arial-BoldMT-64" transform="translate(1168.613281 0)"/>
    <use xlink:href="#Arial-BoldMT-64" transform="translate(1229.697266 0)"/>
    <use xlink:href="#Arial-BoldMT-69" transform="translate(1290.78125 0)"/>
    <use xlink:href="#Arial-BoldMT-6e" transform="translate(1318.564453 0)"/>
    <use xlink:href="#Arial-BoldMT-67" transform="translate(1379.648438 0)"/>
    <use xlink:href="#Arial-BoldMT-20" transform="translate(1440.732422 0)"/>
    <use xlink:href="#Arial-BoldMT-2b" transform="translate(1468.515625 0)"/>
    <use xlink:href="#Arial-BoldMT-20" transform="translate(1526.914062 0)"/>
    <use xlink:href="#Arial-BoldMT-53" transform="translate(1554.697266 0)"/>
    <use xlink:href="#Arial-BoldMT-74" transform="translate(1621.396484 0)"/>
    <use xlink:href="#Arial-BoldMT-72" transform="translate(1654.697266 0)"/>
    <use xlink:href="#Arial-BoldMT-6f" transform="translate(1693.613281 0)"/>
    <use xlink:href="#Arial-BoldMT-6e" transform="translate(1754.697266 0)"/>
    <use xlink:href="#Arial-BoldMT-67" transform="translate(1815.78125 0)"/>
    <use xlink:href="#Arial-BoldMT-6c" transform="translate(1876.865234 0)"/>
    <use xlink:href="#Arial-BoldMT-79" transform="translate(1904.648438 0)"/>
    <use xlink:href="#Arial-BoldMT-45" transform="translate(1960.263672 0)"/>
    <use xlink:href="#Arial-BoldMT-6e" transform="translate(2026.962891 0)"/>
    <use xlink:href="#Arial-BoldMT-74" transform="translate(2088.046875 0)"/>
    <use xlink:href="#Arial-BoldMT-61" transform="translate(2121.347656 0)"/>
    <use xlink:href="#Arial-BoldMT-6e" transform="translate(2176.962891 0)"/>
    <use xlink:href="#Arial-BoldMT-67" transform="translate(2238.046875 0)"/>
    <use xlink:href="#Arial-BoldMT-6c" transform="translate(2299.130859 0)"/>
    <use xlink:href="#Arial-BoldMT-69" transform="translate(2326.914062 0)"/>
    <use xlink:href="#Arial-BoldMT-6e" transform="translate(2354.697266 0)"/>
    <use xlink:href="#Arial-BoldMT-67" transform="translate(2415.78125 0)"/>
    <use xlink:href="#Arial-BoldMT-4c" transform="translate(2476.865234 0)"/>
    <use xlink:href="#Arial-BoldMT-61" transform="translate(2537.949219 0)"/>
    <use xlink:href="#Arial-BoldMT-79" transform="translate(2593.564453 0)"/>
    <use xlink:href="#Arial-BoldMT-65" transform="translate(2649.179688 0)"/>
    <use xlink:href="#Arial-BoldMT-72" transform="translate(2704.794922 0)"/>
    <use xlink:href="#Arial-BoldMT-73" transform="translate(2743.710938 0)"/>
    <use xlink:href="#Arial-BoldMT-20" transform="translate(2799.326172 0)"/>
    <use xlink:href="#Arial-BoldMT-28" transform="translate(2827.109375 0)"/>
    <use xlink:href="#Arial-BoldMT-38" transform="translate(2860.410156 0)"/>
    <use xlink:href="#Arial-BoldMT-20" transform="translate(2916.025391 0)"/>
    <use xlink:href="#Arial-BoldMT-71" transform="translate(2943.808594 0)"/>
    <use xlink:href="#Arial-BoldMT-75" transform="translate(3004.892578 0)"/>
    <use xlink:href="#Arial-BoldMT-62" transform="translate(3065.976562 0)"/>
    <use xlink:href="#Arial-BoldMT-69" transform="translate(3127.060547 0)"/>
    <use xlink:href="#Arial-BoldMT-74" transform="translate(3154.84375 0)"/>
    <use xlink:href="#Arial-BoldMT-73" transform="translate(3188.144531 0)"/>
    <use xlink:href="#Arial-BoldMT-2c" transform="translate(3243.759766 0)"/>
    <use xlink:href="#Arial-BoldMT-20" transform="translate(3271.542969 0)"/>
    <use xlink:href="#Arial-BoldMT-32" transform="translate(3299.326172 0)"/>
    <use xlink:href="#Arial-BoldMT-20" transform="translate(3354.941406 0)"/>
    <use xlink:href="#Arial-BoldMT-6c" transform="translate(3382.724609 0)"/>
    <use xlink:href="#Arial-BoldMT-61" transform="translate(3410.507812 0)"/>
    <use xlink:href="#Arial-BoldMT-79" transform="translate(3466.123047 0)"/>
    <use xlink:href="#Arial-BoldMT-65" transform="translate(3521.738281 0)"/>
    <use xlink:href="#Arial-BoldMT-72" transform="translate(3577.353516 0)"/>
    <use xlink:href="#Arial-BoldMT-73" transform="translate(3616.269531 0)"/>
    <use xlink:href="#Arial-BoldMT-2c" transform="translate(3671.884766 0)"/>
    <use xlink:href="#Arial-BoldMT-20" transform="translate(3699.667969 0)"/>
    <use xlink:href="#Arial-BoldMT-34" transform="translate(3727.451172 0)"/>
    <use xlink:href="#Arial-BoldMT-38" transform="translate(3783.066406 0)"/>
    <use xlink:href="#Arial-BoldMT-20" transform="translate(3838.681641 0)"/>
    <use xlink:href="#Arial-BoldMT-70" transform="translate(3866.464844 0)"/>
    <use xlink:href="#Arial-BoldMT-61" transform="translate(3927.548828 0)"/>
    <use xlink:href="#Arial-BoldMT-72" transform="translate(3983.164062 0)"/>
    <use xlink:href="#Arial-BoldMT-61" transform="translate(4022.080078 0)"/>
    <use xlink:href="#Arial-BoldMT-6d" transform="translate(4077.695312 0)"/>
    <use xlink:href="#Arial-BoldMT-65" transform="translate(4166.611328 0)"/>
    <use xlink:href="#Arial-BoldMT-74" transform="translate(4222.226562 0)"/>
    <use xlink:href="#Arial-BoldMT-65" transform="translate(4255.527344 0)"/>
    <use xlink:href="#Arial-BoldMT-72" transform="translate(4311.142578 0)"/>
    <use xlink:href="#Arial-BoldMT-73" transform="translate(4350.058594 0)"/>
    <use xlink:href="#Arial-BoldMT-29" transform="translate(4405.673828 0)"/>
   </g>
  </g>
 </g>
 <defs>
  <clipPath id="pb43874eee1">
   <rect x="7.2" y="15.84" width="1152" height="432"/>
  </clipPath>
 </defs>
</svg>
